<svg xmlns="http://www.w3.org/2000/svg" viewBox="0 0 499.03122 499.35806" height="499.358" width="499.031"><path d="M114.085 498.444c-16.909-1.517-30.73-5.563-46.5-13.612-23.058-11.768-41.307-29.888-53.1-52.724-17.112-33.137-19.103-68.869-5.758-103.314 8.062-20.808 20.9-38.11 39.058-52.64l5.701-4.562 8.3 3.503c17.694 7.468 40.697 12.354 58.164 12.354 11.636 0 15.12-1.284 20.065-7.393 2.453-3.032 3.052-4.817 3.389-10.112.354-5.556.055-7.033-2.196-10.875-4.196-7.16-7.967-8.858-21.737-9.786-25.506-1.72-44.113-7.935-64.886-21.673-9.804-6.483-24.492-20.71-31.2-30.219-35.391-50.167-29.95-117.224 13.033-160.636C49.345 23.7 66.933 12.62 83.925 6.827c29.726-10.133 61.86-8.901 90.558 3.472 17.635 7.603 39.218 24.47 49.303 38.531l3.502 4.882-3.293 7.808c-7.502 17.788-11.368 34.987-12.13 53.96-.493 12.25-.353 13.906 1.481 17.5 1.114 2.183 2.861 4.702 3.882 5.598 8.859 7.775 23.436 5.95 29.387-3.678 1.76-2.85 2.384-5.988 3.102-15.625 1.97-26.44 9.016-47.053 22.717-66.457 40.212-56.95 119.976-69.96 175.682-28.657 24.525 18.184 41.828 44.747 48.065 73.788 10.082 46.942-6.992 94.547-44.745 124.752l-5.648 4.519-10.852-4.327c-19.082-7.609-37.736-11.428-55.867-11.439-11.473-.007-14.985 1.296-19.914 7.387-2.454 3.032-3.053 4.817-3.39 10.112-.354 5.556-.055 7.033 2.196 10.875 4.196 7.16 7.967 8.858 21.737 9.786 33.62 2.267 60.367 14.13 82.912 36.772 18.352 18.431 30.035 40.796 34.61 66.258 2.04 11.351 2.012 32.075-.06 43.305-9.547 51.784-49.237 91.477-101.076 101.085-13.156 2.438-33.22 2.208-46.433-.534-29.129-6.043-54.519-21.705-73.361-45.252l-4.562-5.7 3.4-8.06c7.666-18.178 12.456-40.64 12.456-58.404 0-11.637-1.283-15.121-7.392-20.065-3.032-2.454-4.817-3.053-10.112-3.39-5.556-.354-7.033-.055-10.875 2.196-7.104 4.164-8.835 7.963-9.807 21.53-1.056 14.731-2.247 21.276-6.02 33.094-12.942 40.523-45.935 71.67-87.37 82.484-7.555 1.971-29.374 4.866-32.924 4.368-.55-.077-4.6-.463-9-.857zm151.89-183.967c29.756-7.61 50.61-34.405 50.61-65.028 0-37.001-30-67-67-67-37.031 0-67 29.969-67 67 0 43.508 41.376 75.773 83.39 65.028z" fill="#545454"/></svg>