<svg xmlns="http://www.w3.org/2000/svg" viewBox="0 0 351.05621 167.80365" height="167.804" width="351.056"><path d="M157.487 167.186c-44.922-3.955-94.738-25.382-126.113-54.244l-9.02-8.297-2.016 4.75c-1.11 2.612-3.47 10.374-5.247 17.25-1.776 6.874-3.563 12.896-3.97 13.381-.408.486-3.177.264-6.153-.49-5.329-1.354-5.398-1.44-4.594-5.728 4.45-23.719 18.869-54.157 34.57-72.978l4.85-5.814-1.19-8.56c-.656-4.71-1.317-12.707-1.469-17.772-.311-10.387-.094-10.677 9.02-12.036 5.324-.795 5.82-.638 6.545 2.068.432 1.61.792 6.631.801 11.157.01 4.527.382 8.595.828 9.04.446.446 3.034-1.196 5.75-3.65 7.478-6.757 33.264-22.994 36.515-22.994 2.552 0-.705 3.259-9.227 9.23-5.445 3.816-14.841 11.65-20.88 17.41L55.51 49.381l2.215 10.507c4.542 21.548 11.531 42.309 20.414 60.635l5.515 11.379 12.12 5.779c23.17 11.047 45.749 17.817 71.31 21.383 14.985 2.09 46.657 2.507 57.06.752 6.84-1.154 10.483.369 5.454 2.28-11.137 4.235-50.371 7.004-72.11 5.09zM53.073 103.903c-1.77-4.68-4.69-13.852-6.487-20.384C42.04 67 42.404 67.884 40.805 69.483c-.76.76-3.818 5.49-6.796 10.513l-5.414 9.131 5.274 5.472c6.625 6.872 21.169 19.068 21.885 18.351.296-.295-.91-4.366-2.681-9.047zm285.004 38.105c-3.762-13.886-13.225-36.7-19.674-47.433-17.999-29.95-46.038-56.616-74.572-70.915-5.672-2.843-10.313-5.725-10.313-6.405 0-1.79 1.614-1.548 8.92 1.33 51.985 20.492 91.65 63.972 106.518 116.762 3.354 11.908 3.345 11.931-4.906 13.7-3.821.82-3.856.78-5.973-7.039zm-189.599-18.67c-2.917-3.682-5.925-7.678-6.683-8.881-2.449-3.888-3.254-2.352-2.95 5.625l.298 7.812h-16.25l-.167-22.812-.168-22.813h17.456l-.87 7.5c-.48 4.125-.394 7.483.19 7.462.582-.022 2.89-2.412 5.128-5.313 2.238-2.9 5.193-6.603 6.566-8.229l2.497-2.955 5.31 4.754c5.845 5.234 6.777 6.663 5.148 7.894-.6.453-3.317 3.204-6.039 6.113l-4.949 5.29 6.751 6.837c3.713 3.76 6.492 6.99 6.176 7.179-.316.189-3.177 2.793-6.357 5.786l-5.782 5.443-5.305-6.693zm74.415 2.722c-10.19-4.9-13.132-9.25-13.104-19.381.045-16.47 13.214-27.262 30.618-25.087 11.288 1.41 18.238 7.826 20.041 18.502 3.288 19.458-19.016 34.88-37.555 25.966zm17.292-12.31c2.528-2.794 3.889-9.098 2.854-13.222-1.731-6.897-8.561-9.218-13.27-4.509-3.245 3.245-3.515 14.308-.432 17.714 2.65 2.93 8.205 2.938 10.848.017zm38.333 13.3c-9.04-2.568-16.28-10.672-16.222-18.156.041-5.285 4.105-13.17 8.857-17.189 4.357-3.684 14.252-8.673 19.96-10.063 3.055-.744 3.303-.42 4.8 6.268.868 3.88 1.387 7.19 1.154 7.356-.233.166-2.883 1.01-5.889 1.874-15.075 4.334-14.887 16.681.262 17.174l6.453.21.375 6.998.375 6.997-7.875-.112c-4.33-.062-9.843-.673-12.25-1.356zm-195-22.28v-22.5h9.774c18.25 0 27.726 5.084 27.726 14.878 0 8.24-6.875 15.204-19.062 19.306-1.6.539-2.188 2.09-2.188 5.776v5.04h-16.25v-22.5zm19.75-1.5c2.325-2.325 1.773-7.017-1-8.5-2.329-1.247-2.5-.951-2.5 4.33 0 5.8.854 6.816 3.5 4.17zm76.5 8.431V96.02h-12.5V82.27h42.5v13.75H195.89l.216 15.313.215 15.312-8.276.37-8.276.37V111.7zm-52.493-38.068c-4.273-1.162-4.557-4.427-.777-8.92 3.82-4.538 5.1-10.469 3.937-18.229-1.236-8.24-4.905-11.185-16.053-12.884-21.347-3.254-25.868-5.008-24.19-9.383.388-1.01 3.01-3.01 5.826-4.448 2.817-1.437 5.428-3.41 5.802-4.385.692-1.802 12.259-6.666 17.947-7.546 1.72-.266 7.881-1.354 13.693-2.418 8.482-1.552 11.934-1.655 17.5-.523 9.264 1.884 9.243 1.885 20.54-1.174C176.92 2.255 184.813.7 189.04.267c26.48-2.713 46.108 15.655 39.005 36.5-2.815 8.261-2.625 9.527 2.42 16.136 6.036 7.908 5.665 12.545-1.322 16.534-5.76 3.289-12.266 3.332-12.88.086-.271-1.428 1.28-2.98 4.737-4.744 2.827-1.443 5.452-3.434 5.832-4.426.38-.992-1.053-4.438-3.186-7.658-4.418-6.67-4.599-8.067-2.003-15.426 2.538-7.192 2.358-12.904-.59-18.681-5.048-9.897-13.282-13.24-30.035-12.194-8.543.532-21.212 3.41-23.565 5.35-.242.2.462 1.65 1.563 3.223 2.236 3.191 2.665 7.302.763 7.302-.682 0-1.947-1.142-2.812-2.538-2.631-4.245-10.046-8.605-16.82-9.89-8.609-1.632-20.905.38-26.696 4.368-4.693 3.233-8.027 3.882-9.308 1.81-1.238-2.003-2.78-1.45-3.487 1.25-.36 1.375-1.572 2.5-2.695 2.5-1.123 0-4.41 1.228-7.305 2.729l-5.263 2.728 3.75.912c2.063.501 8.443 1.51 14.18 2.241 11.665 1.488 17.94 4.571 20.882 10.26 2.559 4.948 2.543 19.208-.028 25.289l-2.022 4.783 6.536-.347c4.229-.225 6.71.18 7.033 1.146.924 2.771-12.44 5.758-18.449 4.123z" fill="#4b4b4b"/></svg>