<svg xmlns="http://www.w3.org/2000/svg" viewBox="0 0 120.5363 86.213951" height="86.214" width="120.536"><path d="M39.87 85.238c-1.344-.505-2.917-1.958-3.496-3.229-1.41-3.093-2.855-2.914-4.046.502-.54 1.547-1.572 2.812-2.295 2.812-1.711 0-1.671-.522.598-7.87 1.495-4.839 2.31-6.192 3.727-6.192 1.54 0 1.682.348.936 2.31-1.173 3.084.349 3.865 2.156 1.107 3.028-4.622 12.518-5.631 14.695-1.564 1.754 3.279 1.107 7.464-1.532 9.91-1.364 1.265-2.946 2.305-3.516 2.312-.569.007-1.878.195-2.91.417-1.03.222-2.974-.01-4.317-.515zm8.77-4.788c2.03-2.346 2.075-3.934.168-5.841-2.118-2.118-4.83-1.817-7.476.828-2.85 2.85-2.912 4.665-.22 6.55 2.432 1.703 5.219 1.135 7.529-1.537zm9.844 3.096c-1.543-1.503-2.578-3.518-2.578-5.018 0-2.868 3.074-6.139 6.544-6.964 1.3-.309 2.87-.961 3.492-1.45 1.857-1.46 7.777 3.646 7.777 6.706 0 3.197-2.836 6.278-6.522 7.088-1.57.345-2.853 1.015-2.853 1.49 0 1.676-3.314.629-5.86-1.852zm4.922-7.341c0-1.907-.248-2.065-1.875-1.194-1.83.979-2.559 4.628-1.197 5.99.994.994 3.072-2.249 3.072-4.796zm5.996 3.348c1.018-1.454 1.155-2.504.49-3.75-1.426-2.662-2.418-2.082-3.46 2.02-.756 2.98-.694 3.75.302 3.75.69 0 1.89-.909 2.668-2.02zm11.348 6.03c-1.031-.254-2.402-.89-3.047-1.413-1.618-1.314-1.472-7.377.237-9.816 1.715-2.45 7.254-4.413 10.294-3.65 7.417 1.862 6.696 11.723-1.073 14.677-2.433.925-3.351.954-6.411.201zm8.203-5.091c.902-1.066 1.64-2.495 1.64-3.174 0-1.778-2.66-4.182-4.627-4.182-2.677 0-6.622 3.643-6.622 6.115 0 4.408 6.247 5.215 9.609 1.24zM.07 83.72c.339-.881 1.333-4.062 2.21-7.068 1.697-5.814 2.984-6.782 8.206-6.169 4.07.478 3.915 2.485-.217 2.826-2.505.207-3.659.782-3.877 1.935-.225 1.19.302 1.64 1.914 1.64 4.392 0 5.746 3.418 2.6 6.563C8.35 86.005-.895 86.238.07 83.721zm8.492-3.085c0-2.033-3.657-1.753-4.055.31-.256 1.332.162 1.647 1.863 1.407 1.206-.171 2.192-.944 2.192-1.717zm6.094 3.711c0-2.182 3.974-13.086 4.769-13.086 1.77 0 2.205.522 1.965 2.358-.178 1.356.557 2.193 2.603 2.965 3.345 1.263 3.888 4.697 1.136 7.188-1.913 1.73-10.473 2.201-10.473.575zm7.969-3.633c0-2.179-2.136-2.218-3.29-.06-.968 1.806-.857 1.975 1.108 1.697 1.2-.17 2.182-.907 2.182-1.637zm72.656 3.35c0-1.683 3.606-12.096 4.497-12.988 1.09-1.09 7.794.3 8.342 1.729.269.7.225 2.322-.097 3.605-.452 1.802-1.522 2.567-4.71 3.37-3.135.79-4.26 1.579-4.69 3.291-.592 2.358-3.342 3.175-3.342.993zm9.375-8.584c0-.782-.833-1.407-1.875-1.407s-1.875.625-1.875 1.407c0 .78.833 1.406 1.875 1.406s1.875-.625 1.875-1.406zm5.635 9.209c.006-.425.644-2.861 1.419-5.415 1.26-4.156 1.258-4.728-.03-5.449-2.487-1.391-.53-2.564 4.281-2.564 4.905 0 6.105 1.361 2.43 2.758-1.618.616-2.57 2.164-3.592 5.837-.884 3.177-1.96 5.109-2.954 5.302-.86.166-1.56-.045-1.554-.47zm-80.23-20.982c4.514-4.995 9.669-13.12 11.446-18.038.783-2.167 1.436-6.925 1.453-10.574.058-13.022-7.962-23.729-24.085-32.155L13.25 0l4.687.556c7.65.908 26.565 5.899 33.854 8.933 13.651 5.683 20.99 13.225 20.99 21.571 0 11.169-18.247 27.79-37.95 34.57-7.972 2.742-8.714 2.443-4.77-1.923zm36.894-8.793c12.52-11.81 16.067-26.143 8.58-34.67l-2.778-3.164 3.767.846c2.071.465 6.507 1.943 9.856 3.284 18.397 7.365 12.798 20.555-14.695 34.62-5.502 2.815-10.256 5.118-10.565 5.118-.309 0 2.317-2.715 5.835-6.034zm29.395-8.597c6.18-6.611 7.69-11.529 5.075-16.54-1.643-3.15-.443-3.383 3.874-.75 3.567 2.174 5.299 5.072 4.513 7.548-.749 2.358-7.56 8.307-12.765 11.148l-4.11 2.244 3.413-3.65z" fill="#4b4b4b"/></svg>