<svg xmlns="http://www.w3.org/2000/svg" viewBox="0 0 511.98545 141.06741" height="141.067" width="511.985"><path d="M.011 140.326c-.362-.655 8.22-16.452 22.292-41.031l3.295-5.756 20.975-.11c11.536-.06 23.605-.401 26.821-.758l5.848-.649L68.918 73.82C51.706 43.471 53.191 46.89 55.244 42.345 59.254 33.467 78.971 0 80.191 0c.725 0 7.133 10.237 14.241 22.749l12.923 22.749-3.186 5.565c-1.753 3.062-7.643 13.53-13.09 23.263l-9.903 17.696 5.32.659c2.927.362 14.65.71 26.051.774 11.402.063 21.2.45 21.775.858.575.409 2.912 3.929 5.195 7.822 6.137 10.468 21.57 38.039 21.57 38.536 0 .236-12.173.308-27.051.16l-27.05-.27-13.093-23.005c-7.202-12.653-13.345-23-13.652-22.993-.54.013-7.457 11.722-20.6 34.875l-6.314 11.124-26.444.27c-14.543.147-26.636-.08-26.872-.506zm181.3-22.517V94.551h30.337v7.079h-7.963c-4.38 0-9.386.284-11.124.631-2.957.592-3.16.915-3.16 5.021v4.389l10.365.288 10.366.288.313 3.792.314 3.792h-21.454l.3 6.32.302 6.32 11.376.287 11.377.286v8.023h-31.35V117.81zm39.015 22.38c-.317-.513-.879-10.992-1.249-23.286l-.672-22.352h9.423l.01 13.398c.004 7.37.288 15.734.631 18.587l.624 5.188 10.041.712 10.042.712-.309 3.707-.309 3.707-13.827.28c-7.7.157-14.083-.132-14.405-.652zm34.806-22.38V94.551h30.459l-.314 3.792-.314 3.792-10.87.287-10.872.287v8.962l10.366.288 10.365.288.314 3.792.313 3.792h-21.358v11.875l11.013.714 11.013.714.616 3.082c.34 1.695.617 3.48.617 3.967 0 .486-7.054.884-15.674.884H255.13V117.81zm47.022 21.377c-7.118-4.397-9.809-10.417-9.809-21.947 0-8.905 1.33-12.802 6.132-17.975 3.835-4.131 7.452-5.725 12.98-5.72 5.797.004 10.583 2.607 13.455 7.318 2.863 4.696 2.585 6.55-1.106 7.36-2.713.596-3.56.208-6.456-2.953-7.563-8.256-16.713-1.6-16.713 12.158 0 8.763 4.016 15.55 9.2 15.55 3.016 0 9.002-4.39 9.002-6.603 0-.752.38-1.602.845-1.889 1.37-.847 8.257 1.643 8.257 2.986 0 .678-1.48 3.435-3.287 6.127-2.5 3.723-4.254 5.184-7.331 6.104-6.021 1.8-11.733 1.607-15.169-.516zm42.58.282c-.338-.88-.614-9.503-.614-19.163V102.74l-5.814-.303-5.815-.303-.314-3.792-.314-3.792h33.615l-.314 3.792-.313 3.792-5.815.303-5.815.303-.007 12.338c-.004 6.785-.297 15.408-.651 19.163l-.645 6.825h-3.285c-2.063 0-3.513-.595-3.899-1.6zm26.353.925c-.371-.37-.675-10.872-.675-23.337V94.394l13.738.331 13.737.331 3.06 3.427c2.816 3.155 3.025 3.897 2.631 9.34-.432 5.975-3.393 10.997-6.484 10.997-2.542 0-2.582 2.241-.087 4.886 2.366 2.508 9.81 15.17 9.81 16.687 0 .37-1.741.674-3.869.674-4.538 0-6.046-1.4-12.324-11.454-4.275-6.846-8.337-9.926-10.386-7.876-.533.532-1.205 5.1-1.493 10.15l-.523 9.18h-3.23c-1.778 0-3.535-.303-3.905-.674zm23.412-32.088c.406-4.953-.632-5.63-8.665-5.65l-6.32-.015v10.201l7.331-.297 7.331-.297.323-3.942zm17.374 9.504V94.551h8.09v46.516h-8.09V117.81zm27.81 22.517c-3.653-.914-7.594-4.413-9.798-8.698-2.624-5.1-3.609-17.373-1.9-23.692 1.302-4.819 5.986-10.71 10.28-12.931 6.138-3.174 17.086-.685 21.01 4.778 3.04 4.233 3.218 5.736.87 7.38-3.227 2.26-4.551 1.94-8.263-1.994-4.109-4.358-8.536-4.768-12.176-1.128-7.036 7.037-4.898 26.536 3.13 28.552 3.598.903 9.06-2.067 10.726-5.832 1.457-3.291 1.393-3.272 5.766-1.747 2.857.996 3.18 1.467 2.6 3.792-1.011 4.056-5.442 9.281-9.2 10.852-3.306 1.381-9.029 1.674-13.046.668zM181.31 59.615V35.802l6.244.301 6.244.302 3.475 14.542c2.288 9.577 3.77 14.065 4.342 13.146.477-.768 2.287-7.426 4.02-14.795l3.153-13.4h12.972v46.518h-8.09V66.573c0-8.713-.224-15.619-.498-15.345-.273.273-2.073 7.25-4 15.502-1.926 8.253-4.091 15.379-4.811 15.836-2.014 1.277-5.485 1.014-6.751-.512-.627-.755-2.697-7.922-4.6-15.927l-3.462-14.554-.074 15.927-.074 15.927h-8.09V59.615zm48.774.3l.271-23.51 3.792-.314 3.792-.314v47.65h-8.126l.272-23.511zm26.26 22.298c-.855-.855-1.213-6.674-1.213-19.719V43.99h-12.257l.313-3.792.314-3.792h33.372l.314 3.792.314 3.792h-13.268v39.438h-3.337c-1.836 0-3.884-.546-4.551-1.214zm32.508-.253c-3.895-1.694-8.44-8.11-8.44-11.914 0-2.528.344-2.799 3.56-2.799 2.845 0 3.8.524 4.748 2.604 3.366 7.388 15.961 6.944 15.961-.562 0-2.709-.562-3.113-8.5-6.109-10.258-3.871-13.796-7.134-14.424-13.3-.838-8.231 5.54-13.981 15.508-13.981 6.241 0 11.397 2.691 13.908 7.26 2.583 4.698 1.645 6.897-2.943 6.897-2.86 0-3.83-.52-4.755-2.552-1.847-4.052-10.06-4.878-12.338-1.24-1.859 2.968.522 5.115 8.767 7.909 4.22 1.43 8.417 3.217 9.326 3.971 7.012 5.82 5.508 19.354-2.612 23.512-4.155 2.127-13.22 2.282-17.766.304zm40.358-.131c-1.804-.925-4.266-3.276-5.47-5.224-2.023-3.274-2.196-4.932-2.281-21.872l-.093-18.328 4.232-.308 4.232-.308.319 17.843c.31 17.35.385 17.896 2.706 19.774 1.313 1.062 3.652 1.931 5.197 1.931s3.884-.869 5.197-1.93c2.32-1.878 2.396-2.428 2.705-19.72l.318-17.788h9.291l-.652 18.731c-.7 20.1-1.443 23.218-6.294 26.397-3.745 2.453-15.258 2.93-19.407.802zm35.134-22.01v-23.92l6.32.052c12.883.106 19.844 1.383 22.609 4.147 3.715 3.716 4.321 9.795 1.44 14.456l-2.238 3.622 3.126 3.56c2.294 2.613 3.125 4.558 3.123 7.316-.002 4.946-2.87 10.517-6.239 12.115-1.485.706-8.425 1.573-15.42 1.927l-12.721.645V59.82zm23.406 13.417c2.347-1.256 2.456-5.693.201-8.184-1.31-1.449-3.174-1.85-8.595-1.85h-6.922v12.414l6.72-.688c3.696-.379 7.564-1.14 8.596-1.692zm-2.338-19.738c1.719-1.204 2.225-2.414 1.994-4.763-.352-3.589-2.304-4.48-10.169-4.645l-4.803-.101v11.123h5.337c3.25 0 6.238-.63 7.64-1.614zm20.627 6.418l.271-23.511 3.792-.314 3.793-.314v47.65h-8.128l.272-23.511zm24.056 22.382c-3.588-1.431-6.015-3.869-8.289-8.323-2.536-4.97-1.852-6.728 2.618-6.728 2.809 0 3.863.591 5.255 2.948 3.128 5.296 9.326 6.653 13.91 3.046 4.761-3.745 2.727-6.712-6.862-10.011-11.942-4.11-15.795-8.713-14.252-17.032 1.23-6.624 6.39-10.313 14.375-10.277 7.11.033 13.17 3.11 15.067 7.648 2.015 4.822 1.267 6.487-2.913 6.487-2.584 0-3.91-.715-5.624-3.034-1.81-2.448-2.987-3.033-6.1-3.033-2.574 0-4.468.673-5.689 2.022-1.698 1.877-1.71 2.155-.175 3.852.91 1.006 4.59 2.865 8.179 4.132 3.588 1.266 8.26 3.804 10.384 5.64 3.606 3.117 3.86 3.704 3.86 8.94 0 6.52-2.217 10.307-7.657 13.08-3.791 1.934-12.027 2.263-16.087.643zm32.002.455c-.371-.371-.674-11.091-.674-23.822V35.783l4.297.31 4.298.312.292 8.848.293 8.848h16.022l.292-8.848.292-8.848 3.792-.314 3.792-.314v47.65h-8.088V63.202h-16.18l-.014 7.837c-.02 11.014-.517 12.388-4.486 12.388-1.79 0-3.556-.303-3.927-.674zm42.032-22.837l.271-23.511 3.792-.314 3.792-.314v47.65h-8.126l.272-23.511z" fill="#4b4b4b"/></svg>