<svg xmlns="http://www.w3.org/2000/svg" viewBox="0 0 404.10513 128.96579" height="128.966" width="404.105"><path d="M192.607 128.167c-1.171-.474-6.266-8.345-13.008-20.096-6.095-10.625-11.452-19.318-11.903-19.318-.452 0-.821 8.649-.821 19.219v19.219H66.685l-19.514-13.207c-10.733-7.264-20.148-13.818-20.921-14.565-2.24-2.163-.064-2.822 11.549-3.496 5.765-.334 12.17-1.07 14.232-1.636 9.3-2.55 13.878-8.295 11.378-14.278-2.475-5.924-11.282-8.315-29.2-7.926l-12.178.264-.248 27.422-.249 27.422H0V97.774c0-26.24.168-29.555 1.553-30.703 1.239-1.026 7.075-1.284 28.828-1.273 23.23.01 28.413.272 34.95 1.763 15.344 3.5 22.463 9.196 21.58 17.266-.886 8.08-7.841 12.215-24.802 14.746-2.191.327-3.981.874-3.978 1.216.007.666 30.1 20.516 32.498 21.437.79.303 1.808-.038 2.264-.758.455-.72.835-9.209.843-18.865l.014-17.557 2.534-1.662c2.25-1.475 5.568-1.694 29.532-1.95l26.996-.286v6.56l-19.295.288c-21.906.327-21.954.345-21.954 7.968v4.04h37.5v6.561h-37.719l.392 6.158c.255 4.005.867 6.458 1.75 7.017.747.472 10.955.865 22.686.873l21.328.014v-17.812c0-16.086.168-17.981 1.736-19.549 3.12-3.12 15.778-3.604 22.92-.875 3.009 1.149 5.657 4.808 13.259 18.314 2.974 5.285 5.68 9.6 6.012 9.588.332-.012 3.557-5.318 7.167-11.791 3.61-6.474 7.874-12.938 9.477-14.365 5.46-4.861 21.105-4.652 25.398.338 2.086 2.425 2.156 3.087 2.156 20.267 0 9.768.348 17.76.773 17.76.426 0 5.246-8.124 10.713-18.053 5.467-9.93 11.011-19.06 12.322-20.292 4.832-4.54 21.92-4.553 26.304-.02 1.207 1.25 6.746 10.402 12.307 20.34 5.562 9.936 10.562 17.917 11.112 17.734.672-.224 1.082-9.762 1.248-29.083l.248-28.75h18.723v62.85l-19.338-.254-19.337-.253-3.442-6.094-3.442-6.094-15.628-.256-15.628-.257-3.546 6.569-3.545 6.569-13.828.016-13.828.016v-18.695c0-18.828-.487-21.58-3.3-18.682-.685.706-5.728 9.088-11.207 18.627-5.479 9.539-10.831 18.082-11.894 18.984-2.044 1.736-5.61 2.036-8.805.742zm93.362-29.336c-4.08-7.617-4.977-8.706-7.386-8.957-2.568-.268-3.046.26-7.538 8.332-2.637 4.74-4.795 8.77-4.795 8.957 0 .187 5.481.34 12.181.34h12.181l-4.643-8.672zm73.317 16.53c-12.754-8.743-16.931-12.073-16.38-13.057.405-.726 7.782-5.76 16.392-11.185l15.655-9.866h6.172c3.395 0 5.976.32 5.734.71-.24.39-5.739 4.082-12.218 8.203-6.479 4.121-11.79 7.825-11.804 8.23-.013.406 8.817 6.523 19.622 13.594a13695.22 13695.22 0 0 1 21.328 13.974c1.338.888-1.289 1.118-12.85 1.125l-14.53.01-17.12-11.737zM177.272 54.766c-13.102-11.415-23.417-20.89-22.923-21.055.495-.165 11.314 2.854 24.041 6.71l23.141 7.01 23.158-7.015c12.736-3.858 23.544-6.886 24.016-6.729.718.24-46.537 42.05-47.343 41.888-.147-.03-10.988-9.393-24.09-20.809zm6.244-18.76l-16.641-4.79v-4.512c0-2.987.396-4.512 1.173-4.512.645 0 8.45 2.08 17.344 4.62l16.17 4.621 16.171-4.62c8.894-2.542 16.699-4.621 17.344-4.621 1.448 0 1.63 8.044.201 8.927-1.3.804-32.988 9.842-34.183 9.75-.516-.04-8.427-2.228-17.58-4.863zm6.093-13.095L180 20.013v-4.536c0-2.495.297-4.536.66-4.536.364 0 5.215 1.29 10.782 2.867l10.12 2.866 10.121-2.866c5.567-1.577 10.418-2.867 10.782-2.867.363 0 .66 2.045.66 4.545v4.546l-10.253 2.954c-5.64 1.625-11.019 2.925-11.954 2.888-.934-.037-6.023-1.37-11.309-2.964zm7.032-12.652l-4.453-1.301V4.306c0-4.6.028-4.644 2.578-4.027 1.418.343 3.527.973 4.687 1.4 1.16.428 3.059.428 4.219 0 1.16-.427 3.27-1.057 4.687-1.4 2.553-.618 2.579-.578 2.579 4.081 0 2.588-.317 4.71-.704 4.716-.386.006-2.601.567-4.921 1.247-3.53 1.035-4.946 1.024-8.672-.065z" fill="#4b4b4b"/></svg>