<svg xmlns="http://www.w3.org/2000/svg" viewBox="0 0 887.62415 218.386" height="218.386" width="887.624"><path d="M163.556 217.51c-18.046-2.652-37.545-13.205-50.565-27.366-14.554-15.83-22.16-33.806-23.627-55.847l-.577-8.672H0V0h205.312v44.894l11.485 5.631c19.143 9.386 32.347 22.413 41.438 40.881 5.766 11.714 8.016 20.373 8.668 33.36.895 17.804-1.62 30.17-9.197 45.23-10.334 20.538-30.335 37.797-51.381 44.336-12.206 3.793-29.721 5.094-42.769 3.177zm40.19-7.854c26.035-8.886 45.084-27.64 53.68-52.847 3.996-11.714 4.985-18.158 4.571-29.778-.624-17.543-6.832-34.212-18.01-48.357-5.4-6.835-15.472-16.055-20.93-19.162-10.084-5.74-26.12-11.7-31.483-11.7h-2.158l-.255-17.578-.255-17.578-85.73-.24c-47.15-.13-85.963.08-86.25.47-.285.39-.404 23.384-.262 51.098l.259 50.391h78.233l.007 15.234c.008 16.253.657 19.893 5.808 32.579 7.077 17.428 23.038 34.358 40.123 42.556 14.084 6.76 20.804 8.059 39.843 7.705 13.87-.258 16.228-.547 22.808-2.793zm-33.121-5.369c-9.612-1.02-23.46-5.78-31.638-10.872-8.864-5.52-19.812-16.476-24.722-24.741-30.613-51.53 8.516-116.149 68.272-112.747 27.205 1.549 52.213 18.233 63.018 42.042 1.638 3.61 3.332 7.22 3.764 8.024 3.178 5.91 4.379 29.902 2.038 40.726-1.583 7.322-8.102 21.014-13.392 28.13-4.785 6.435-13.967 14.693-21.173 19.042-6.108 3.686-15.78 7.672-18.617 7.672-1.17 0-2.37.392-2.666.871-.48.778-3.909 1.32-14.571 2.298-1.805.166-6.446-.034-10.313-.445zm26.092-7.357c15.865-4.34 31.257-15.78 40.394-30.024 2.62-4.085 4.764-7.703 4.764-8.04 0-.338.596-1.943 1.325-3.568 2.11-4.702 3.192-8.973 4.346-17.149 3.248-23.015-7.537-48.43-26.648-62.796-4.975-3.74-13.635-8.79-15.071-8.79-.267 0-.597 11.917-.734 26.484l-.25 26.484-2.16-6.255c-2.536-7.338-9.613-17.82-15.35-22.737-10.795-9.252-27.89-12.92-44.158-9.472-15.392 3.261-25.567 13.362-32.139 31.902-2.697 7.61-2.936 23.736-.495 33.394 6.409 25.356 26.347 45.163 51.178 50.84 3.61.826 7.406 1.701 8.437 1.947 3.905.927 19.961-.414 26.561-2.22zM23.125 107.187c-.344-.343-.625-20.382-.625-44.53V18.75h160.312v27.856l-9.609.526c-19.908 1.092-39.778 9.875-53.797 23.782-5.645 5.6-6.26 6.373-12.16 15.269-2.814 4.244-6.4 12.104-9.121 19.989-.526 1.525-3.164 1.64-37.47 1.64-20.298 0-37.186-.28-37.53-.624zm335.986 50.547a9803.24 9803.24 0 0 1 14.76-27.824l8.95-16.808-3.607-6.63c-1.984-3.645-9.65-17.52-17.036-30.833-7.385-13.312-13.428-24.387-13.428-24.61 0-.222 3.762-.404 8.361-.404h8.361l1.827 3.047c1.005 1.676 4.042 7.266 6.75 12.422 11.323 21.563 16.304 30.469 17.04 30.469.43 0 5.88-10.336 12.112-22.97l11.33-22.968h7.89c4.92 0 7.892.373 7.892.99 0 .546-3.106 6.98-6.902 14.298a19128.102 19128.102 0 0 0-15.126 29.243c-4.524 8.766-9.791 18.89-11.706 22.5-1.914 3.61-8.652 16.582-14.971 28.828l-11.491 22.266h-16.815l5.809-11.016zm-54.892-30.611c-13.625-4.32-24.648-16.404-26.36-28.898l-.552-4.024 7.22-1.47c4.98-1.015 7.32-1.157 7.55-.46.181.556.772 2.738 1.311 4.85 2.159 8.448 9.965 15.163 19.468 16.748 9.951 1.66 21.153-5.548 24.113-15.515 3.966-13.355-.804-21.648-16.65-28.948a1437.387 1437.387 0 0 1-16.546-7.771c-17.124-8.211-24.089-20.411-20.237-35.447 2.678-10.453 9.184-17.275 20.683-21.686 8.386-3.218 21.41-3.068 28.706.33 8.476 3.946 18.068 13.596 15.965 16.06-.535.627-3.21 2.33-5.947 3.784l-4.974 2.644-4.814-4.653c-3.813-3.685-5.84-4.873-9.74-5.71-18.598-3.988-33.18 15.1-20.457 26.78 3.258 2.99 7.972 5.404 18.916 9.682 16.144 6.313 24.806 13.009 29.068 22.47 2.948 6.545 3.299 20.415.692 27.335-4.458 11.835-12.723 19.794-24.252 23.355-6.894 2.13-17.387 2.376-23.163.544zm141.094-.246c-6.07-2.116-9.825-4.842-13.849-10.05-3.337-4.32-2.754-5.669 3.658-8.45l5.747-2.492 3.122 3.647c3.912 4.57 7.674 6.181 12.824 5.49 5.407-.724 9.123-4.83 9.123-10.082 0-4.81-1.777-6.484-13.263-12.504-13.491-7.07-16.527-9.498-19.132-15.297-4.04-8.991 1.547-22.214 11.248-26.62 5.086-2.31 14.707-2.31 19.793 0 3.761 1.708 11.015 9.092 10.487 10.675-.15.451-2.703 2.124-5.672 3.717L464 67.808l-3.153-3.057c-4.025-3.901-8.746-4.296-12.23-1.023-3.095 2.908-3.102 6.872-.018 9.956 1.292 1.292 6.695 4.379 12.007 6.86 16.128 7.53 20.91 13.333 20.116 24.405-.741 10.324-5.145 16.601-14.784 21.076-6.081 2.823-14.03 3.151-20.625.852zm101.718.246c-14.327-4.543-23.522-15.901-25.824-31.9-1-6.947.374-18.53 3.045-25.678 2.774-7.425 11.384-15.986 18.903-18.795 5.75-2.148 18.646-2.931 24.501-1.488 14.702 3.625 24.971 18.054 25.228 35.446l.085 5.76-28.594.47-28.594.468.298 2.344c1.575 12.386 10.812 21.57 21.683 21.557 7.926-.01 11.332-1.573 17.632-8.094l5.863-6.069 5.622 2.996c3.091 1.648 5.621 3.476 5.621 4.063 0 3.1-7.445 11.087-13.594 14.582-9.442 5.368-22.866 7.195-31.875 4.338zm30.89-48.294c.736-1.193-.997-5.495-3.931-9.76-6.466-9.395-21.892-10.47-31.034-2.162-2.677 2.432-5.769 8.257-5.769 10.868 0 1.865.495 1.913 20.101 1.913 11.162 0 20.337-.382 20.632-.86zm165.097 48.055c-9.577-2.94-17.407-10.428-21.758-20.81-2.38-5.678-2.612-7.268-2.629-17.949-.016-10.4.239-12.299 2.264-16.875 6.473-14.629 17.784-22.678 31.964-22.746 8.98-.043 14.946 2.282 21.56 8.406L780 62.077V50.625h15v75h-15v-10.5l-5.16 4.715c-8.816 8.057-20.262 10.591-31.822 7.044zm21.177-12.66c15.148-4.538 21.621-28.048 11.756-42.696-7.42-11.016-25.264-13.182-34.707-4.213-5.588 5.309-7.547 10.12-7.96 19.546-.353 8.084-.188 9.08 2.432 14.68 5.295 11.314 16.457 16.285 28.48 12.683zM491.25 95.213V64.8l-3.516-.291-3.515-.291-.276-6.797-.275-6.797h7.532l.259-14.297.259-14.297 7.24-.273 7.242-.273.259 14.335.259 14.336 6.837.277 6.837.276-.275 6.755-.274 6.755-6.797.275-6.797.276v60.856h-15V95.213zm111.584-7.088l.058-37.5h14.92v3.75c0 2.063.343 3.75.763 3.75.419 0 1.958-1.249 3.42-2.775 9.203-9.605 27.031-8.8 34.948 1.58 1.288 1.688 2.727 3.07 3.197 3.07.47 0 2.136-1.46 3.703-3.244 1.566-1.784 5.125-4.357 7.908-5.72 4.549-2.224 5.91-2.442 13.45-2.146 7.559.296 8.793.611 12.443 3.178 4.924 3.462 8.89 10.75 10.182 18.713.502 3.094.916 16.7.919 30.235l.005 24.609h-14.893l-.288-26.484c-.264-24.298-.443-26.79-2.163-30.174-2.72-5.352-5.827-7.281-11.652-7.236-6.463.05-10.179 2.342-13.151 8.112-2.34 4.543-2.393 5.106-2.853 29.972l-.47 25.341-7.177.272-7.177.273-.37-26.054c-.407-28.697-1.009-32.08-6.386-35.91-3.19-2.27-10.998-2.517-14.956-.47-7.502 3.88-9.364 12.019-9.386 41.03l-.015 21.328h-15.038l.059-37.5zm206.229 0v-37.5h15v75h-15v-37.5zm30.937.04v-37.54h14.063l.012 3.047c.008 1.676.261 3.972.565 5.104.512 1.91.761 1.782 3.502-1.804 4.259-5.57 9.809-8.222 17.208-8.222 4.955 0 9.954 1.334 12.254 3.27.414.349-5.565 11.71-6.451 12.259-.441.272-1.729-.001-2.862-.607-3.115-1.667-11.705-1.296-14.649.634-7.81 5.116-8.92 9.664-9.247 37.882l-.267 22.968-7.064.274-7.064.274v-37.54zm-28.731-63.668c-10.116-6.35-1.605-22.171 9.442-17.555 6.223 2.6 8.06 10.594 3.586 15.601-3.389 3.793-8.805 4.605-13.028 1.954z" fill="#4b4b4b"/></svg>