<svg xmlns="http://www.w3.org/2000/svg" viewBox="0 0 83.066147 30.316267" height="30.316" width="83.066"><path d="M9.766 30.116c-.11-.11-.2-.38-.2-.6 0-.316.97-.4 4.622-.4 4.474 0 4.617.02 4.465.6-.148.565-.41.6-4.422.6-2.346 0-4.355-.09-4.465-.2zm20.8-.4c0-.57.2-.6 4.05-.6 3.85 0 4.05.03 4.05.6s-.2.6-4.05.6c-3.85 0-4.05-.03-4.05-.6zm17.6.4c-.11-.11-.2-.383-.2-.607 0-.33.927-.392 4.871-.325 4.363.074 4.882.137 4.972.607.093.482-.288.525-4.67.525-2.625 0-4.863-.09-4.973-.2zm18.7-.4c0-.57.2-.6 4.05-.6 3.85 0 4.05.03 4.05.6s-.2.6-4.05.6c-3.85 0-4.05-.03-4.05-.6zm-57.7-1.7c-.11-.11-.2-.38-.2-.6 0-.317 1.042-.4 5.05-.4 2.778 0 5.13.081 5.23.18.098.098.106.368.017.6-.129.337-1.13.42-5.029.42-2.677 0-4.958-.09-5.068-.2zm21.556-.09c-.452-.732.345-.91 4.084-.91 3.557 0 3.895.047 3.803.525-.088.462-.559.535-3.898.61-2.372.051-3.87-.033-3.99-.226zm16.526-.184c-.1-.261-.182-.519-.182-.572 0-.054 2.038-.116 4.53-.138 4.375-.04 5.652.186 5.2.918-.091.147-2.235.266-4.765.266-3.918 0-4.628-.07-4.783-.474zm19.757.157c-.44-.713.488-.9 4.086-.817 3.074.07 3.725.163 3.725.534 0 .372-.66.465-3.802.534-2.56.056-3.87-.026-4.009-.251zM8.281 25.523c-.155-.594-.032-.607 5.835-.607 5.547 0 5.987.04 5.893.525-.091.475-.65.533-5.835.607-5.537.078-5.74.06-5.893-.525zm22.285-.007c0-.57.2-.6 4.05-.6 3.85 0 4.05.03 4.05.6s-.2.6-4.05.6c-3.85 0-4.05-.03-4.05-.6zm15.782.126c-.1-.261-.182-.531-.182-.6 0-.07 2.093-.126 4.65-.126 2.558 0 4.65.057 4.65.126s.082.339.182.6c.161.42-.35.474-4.468.474-3.963 0-4.677-.07-4.832-.474zm20.518-.126c0-.57.2-.6 4.05-.6 3.85 0 4.05.03 4.05.6s-.2.6-4.05.6c-3.85 0-4.05-.03-4.05-.6zm-59.4-2.375c0-.152-.082-.49-.182-.75-.163-.424.552-.475 6.75-.475 4.01 0 6.932.116 6.932.276 0 1.203-.12 1.224-6.932 1.224-3.789 0-6.568-.116-6.568-.275zm23.154-.4c.094-.659.195-.677 4.368-.758l4.273-.083-.346.758c-.344.756-.356.758-4.368.758-4 0-4.022-.003-3.927-.675zm14.528.2c-.38-.99-.158-1.04 4.207-.958 4.173.08 4.41.117 4.837.758l.447.675h-4.654c-3.968 0-4.682-.07-4.837-.474zm21.772-.2c.094-.66.18-.675 3.996-.675s3.902.015 3.996.675c.095.672.076.675-3.996.675s-4.091-.003-3.996-.675zM6.577 20.136c-.762-1.423-.554-1.52 3.26-1.52h3.57l.305.875c.168.48.226.953.13 1.05-.097.096-1.701.175-3.565.175-3.044 0-3.421-.059-3.7-.58zm8.09.005c0-1.455.169-1.525 3.731-1.525 1.853 0 3.447.08 3.544.176.096.096.038.569-.13 1.05l-.305.874h-3.42c-3.172 0-3.42-.042-3.42-.575zm16.014.143c-.09-.238-.119-.677-.061-.975.095-.497.577-.55 5.725-.624 3.092-.045 5.621.03 5.621.169 0 .137-.378.613-.841 1.056-.84.805-.848.806-5.56.806-3.832 0-4.749-.08-4.884-.432zm13.114-.512c-.18-.52-.329-.993-.329-1.05 0-.058 1.936-.106 4.302-.106h4.302l.348.764c.191.42.348.893.348 1.05 0 .168-1.782.286-4.32.286h-4.321zm23.19.52c-.093-.242-.123-.685-.065-.983.094-.49.48-.543 4-.543h3.896v1.8l-3.83.084c-3.151.07-3.862.006-4.001-.357zm-61.619-3.6c0-.234-.082-.64-.182-.9-.16-.417.272-.475 3.57-.475h3.753l.314.9.314.9H9.25c-3.154 0-3.885-.08-3.885-.425zm10.2 0c0-1.298.222-1.375 3.967-1.375 3.59 0 3.602.003 3.422.675-.1.372-.183.777-.185.9-.002.124-1.624.225-3.604.225-2.908 0-3.6-.082-3.6-.425zm15-.475v-.9H50.27l.348.764c.191.42.348.826.348.9 0 .075-4.59.136-10.2.136h-10.2zm36.3 0v-.9h8.1v1.8h-8.1zM4.17 12.766c-.123-.33-.318-.903-.434-1.275l-.21-.675h7.812l.306 1.108c.168.61.257 1.158.196 1.218-.06.06-1.76.135-3.778.167-3.421.053-3.683.017-3.892-.543zm26.526.357c-.096-.25-.13-.839-.077-1.306l.097-.85 8.943-.077c5.746-.049 8.88.029 8.763.216-.1.161.031.702.29 1.201l.47.91h-8.684c-4.775 0-8.895.08-9.155.18-.277.107-.544-.007-.647-.274zm39.978.16l-3.843-.085.093-1.116.092-1.116 3.975-.083 3.975-.084v1.19c0 .656-.101 1.234-.225 1.285-.124.05-1.954.054-4.067.008zm-54.102-.592c.573-2.054.165-1.875 4.264-1.875 2.052 0 3.73.115 3.73.256 0 .14-.148.68-.33 1.2l-.329.944h-3.74c-3.419 0-3.729-.045-3.595-.525zm-13.854-4.5c-.148-.288-.358-.896-.466-1.35l-.197-.825H10.1l.197.825c.108.454.267 1.062.353 1.35.143.481-.171.525-3.754.525-3.421 0-3.943-.065-4.179-.525zm15.064 0a32.2 32.2 0 0 0 .352-1.35l.197-.825H22.2c2.127 0 3.867.086 3.867.19 0 .105-.156.713-.347 1.35l-.348 1.16h-3.873c-3.547 0-3.86-.044-3.716-.525zm12.842-.75l.092-1.275 3.975-.083 3.975-.084v2.717h-8.134zm10.442 1.066c0-.114.356-.722.79-1.35l.792-1.14h4.909c2.7 0 4.91.075 4.91.167 0 .092-.428.7-.951 1.35l-.95 1.182h-4.75c-2.612 0-4.75-.094-4.75-.209zm25.887-.39c-.147-.563-.41-.6-4.172-.6h-4.015v-1.5h24.3v1.5h-4.05c-3.85 0-4.05.029-4.05.6 0 .569-.2.6-3.928.6-3.676 0-3.938-.04-4.085-.6zM.611 1.807L0 0l4.239.083 4.239.083.388 1.5c.214.825.391 1.602.394 1.725.004.124-1.804.225-4.016.225H1.22zm18.691.726c.496-2.641.261-2.518 4.791-2.518h4.042l-.31.975c-.17.537-.45 1.347-.621 1.8l-.31.825h-7.795zm11.264-.718v-1.8h8.1v3.6h-8.1zm14.554.975c.268-.453.85-1.267 1.292-1.808L47.216 0l5.209.083 5.209.083-1.42 1.725-1.421 1.725h-10.16zm13.646-.975v-1.8h24.3v3.6h-24.3z" fill="#4b4b4b"/></svg>