<svg xmlns="http://www.w3.org/2000/svg" viewBox="0 0 173.7 66.900002" height="66.9" width="173.7"><path d="M0 33.45V0h173.7v66.9H0V33.45zm172.5 0V1.2H1.2v64.5h171.3V33.45zm-37.736 19.777c-4.196-.92-8.232-3.17-11.314-6.308-3.486-3.55-5.212-7.438-5.472-12.328-.21-3.967.22-6.136 1.925-9.67 2.561-5.315 7.84-9.49 14.115-11.164 3.266-.872 8.898-.872 12.164 0 6.275 1.674 11.554 5.85 14.115 11.163.75 1.557 1.526 3.674 1.723 4.706.547 2.865.222 7.578-.694 10.046-2.551 6.88-8.63 12.001-16.11 13.575-2.637.554-7.874.544-10.452-.02zm7.78-10.435c7.665-1.804 10.47-10.645 5.077-16.008-6.165-6.13-16.812-2.407-17.347 6.066-.18 2.829.672 5.125 2.623 7.076 1.618 1.617 2.644 2.209 4.872 2.809 2.007.54 2.687.548 4.775.057zm-124.92-9.27C14.2 23.25 11.4 14.742 11.4 14.616c0-.125 2.8-.192 6.22-.147l6.22.081 2.912 9.557c1.602 5.257 2.966 9.611 3.032 9.677.066.066 1.457-4.235 3.093-9.557l2.973-9.677 5.71-.081 5.708-.081.946 2.93c4.468 13.843 5.282 16.286 5.394 16.174.109-.109 3.993-12.764 5.376-17.517l.459-1.575h6.01c4.684 0 5.98.083 5.87.375-.077.206-2.757 8.714-5.955 18.906l-5.815 18.531-5.66-.08-5.66-.082-3.414-10.022c-1.877-5.512-3.456-10.065-3.507-10.116-.052-.052-1.572 4.492-3.378 10.097l-3.284 10.19-5.402.001h-5.402l-6.223-18.678zm50.583 18.231c.097-.252 2.838-8.747 6.092-18.876l5.915-18.418 6.318-.118c3.475-.065 6.356-.097 6.403-.07.046.027-2.666 8.538-6.028 18.914L80.794 52.05l-6.381.081c-5.626.072-6.361.027-6.206-.378zm20.601.372c.004-.041 2.746-8.512 6.092-18.825l6.084-18.75 6.058-.081c4.515-.06 6.058.01 6.058.274 0 .287-8.1 26.098-8.63 27.503-.123.323 1.111.378 6.643.3 4.445-.063 6.755.008 6.681.204-.062.165-.705 2.358-1.428 4.874l-1.316 4.573-13.125.002c-7.219 0-13.121-.033-13.117-.074z" fill="#4b4b4b"/></svg>