<svg version="1" xmlns="http://www.w3.org/2000/svg" width="801.333" height="373.333" viewBox="0 0 601.000000 280.000000"><path d="M176 41.4C114.7 64.1 50 88 32.2 94.5L0 106.4v62.3c0 40.8.3 62.4 1 62.8.6.4 50.2 1 110.3 1.6l109.2.9 18.5-19.1c10.2-10.4 18.8-19 19.2-18.9.5 0 34.1 63.6 42.5 80.2l1.8 3.8 23-23 23-23h99.1c54.5 0 111.3-.3 126.2-.7l27.2-.6V223H343.6l-18.9 19.1c-10.4 10.5-19.2 18.7-19.7 18.3-.4-.5-10.3-19.1-21.9-41.4-11.7-22.2-21.4-40.7-21.7-40.9-.3-.3-10.5 9.5-22.7 21.7L216.5 222H6V110.1l5.8-2.1C34.2 99.5 246 21.2 271 12.1 281.8 8.2 291.6 5 292.9 5c1.2 0 45.8 17.8 99.2 39.5 92.6 37.7 113.3 46.4 112.6 47.1-.2.2-16 3.5-35.3 7.4-19.2 3.9-35.3 7.2-35.9 7.4-.5.3 36.5.5 82.4.5 45.9.1 83.2-.1 82.9-.4-.3-.3-19.1-6.9-41.9-14.6-22.8-7.7-44.9-15.3-49.1-16.7l-7.8-2.6V22h-40v36.9l-35.2-12c-19.4-6.6-40.9-14-47.8-16.4C310.4 7.6 288.2 0 287.9.1c-.2 0-50.6 18.6-111.9 41.3z"/><path d="M43.3 124c-10.4 2.2-17.6 8.1-22.4 18.4-2.7 5.8-3.3 8.3-3.7 16.5-1.3 27.5 13.8 44 38.3 41.7 11.7-1.1 14.3-2.2 21-8.9 8.9-8.9 11-14.6 10.9-29.7-.1-13.9-2.1-20.3-9-27.9-6.2-6.9-13.5-10.2-23.3-10.7-4.2-.2-9.5.1-11.8.6zm15.2 13.1c5.3 1.5 11 7.3 12.5 12.9 1.8 6.5 1.6 18.8-.4 24.7-3.7 11-15.5 16.2-26.1 11.4-8.8-3.9-13.2-13.7-12.2-27.1.8-11.6 5.1-18.6 13.4-21.5 4.7-1.7 7.6-1.8 12.8-.4zM555 124.5c0 3.1 3.9 9 7.1 10.9 3.6 2.1 10.6 2.4 15.1.7 3.2-1.2 7.7-6.9 8-10.2.2-1.9-.2-2.5-2.3-2.7-2-.2-3.2.5-5.3 3.2-2.4 3.2-3.2 3.6-7.2 3.6-4.3 0-5.1-.5-9.2-5.4-1.7-2.1-6.2-2.1-6.2-.1zM100 162v38.3l23.3-.5c25.1-.5 26.5-.7 31.9-6.5 3.8-4 5.8-9.4 5.8-15.9 0-6.8-2.2-10.9-8-14.9l-4-2.8 3.5-3.8c8.4-9.4 6-23.6-5-28.9-3.9-1.9-6.8-2.2-25.9-2.7l-21.6-.6V162zm39.6-23.5c1.2.8 2.7 2.7 3.3 4.4 1 2.4 1 3.4-.3 6-.9 1.7-2.4 3.4-3.4 3.9-.9.5-6.8 1.2-12.9 1.6l-11.3.7V137h11.3c8.2 0 11.8.4 13.3 1.5zm-3.9 29.1c6.9.7 9.4 2.8 10 8.5.4 3.8.1 5-2 7.5-2.5 2.9-2.6 2.9-15.6 3.3l-13.1.3v-20.7l7.8.3c4.2.1 10.1.5 12.9.8zM174 162v38h15v-15.3c0-8.3.4-15.8.9-16.6 1.4-2.2 4.7-.4 7.9 4.4 1.5 2.3 5.3 9.5 8.2 15.9l5.4 11.6h7.8c7.3 0 7.8-.1 7.8-2.1 0-4-14-29.6-18.2-33.5l-3.9-3.5 2.6-3.4c1.4-1.9 3.9-6.7 5.5-10.7 3.4-8.5 6.7-11.8 11.6-11.8h3.4v-11h-4.3c-10.9 0-15 3.4-22.2 18.7-5 10.6-7.3 13.3-10.9 13.3-1.4 0-1.6-2.1-1.6-16v-16h-15v38zm138-35.9c-8.1 3.6-14.6 11.3-17.3 20.6-4.8 16.2-2 34.1 7.1 44.4 1.7 1.9 5.5 4.8 8.4 6.4 4.8 2.7 6.2 3 14.8 3 11.1 0 18-2.4 23-8.2 3.7-4.1 7-10.5 7-13.3 0-2.3-4.6-4.7-10.5-5.7-2.9-.5-3.3-.2-3.8 2.6-.4 1.7-2.4 5-4.4 7.2-4.7 4.9-9.9 6.1-16.7 3.5-7.5-2.9-9.9-6.7-11.6-18.8-1.2-8.1.1-18.6 2.9-23.3 1.9-3.3 7.1-7.2 10.8-8.1 6.7-1.7 13.6 1.5 18.9 8.9l2 2.8 6.2-1.4c3.5-.8 6.5-1.7 6.8-2 1.1-1.1-6-12.9-9.1-15.3-5.7-4.3-9.8-5.4-20.2-5.4-7.7 0-10.8.5-14.3 2.1zm129.5 19.7c-2.2 1.1-4.9 2.9-5.9 4.1-2.7 3-3.6 2.6-3.6-1.4V145h-13v76h14v-27.2l2.3 1.6c9.5 7 19.5 7.2 27.1.6 10-8.8 11.4-31.7 2.7-43.6-5.2-7.3-15.9-10.2-23.6-6.6zm10.3 12.7c7.5 6.3 6.5 25.3-1.5 29.6-5.6 3-11.8.8-14.9-5.3-1.8-3.5-1.8-18.4 0-21.7 3-5.5 11.4-6.8 16.4-2.6zm45.4-12.7c-6.6 2.4-11.7 7.1-14.8 13.7-1.9 4-2.4 6.6-2.4 13.5 0 10.6 1.8 14.9 8.9 21.2 6.1 5.5 12.7 7.4 22.1 6.3 10.3-1.2 19.1-9 22-19.5 1.3-4.7 1.3-13.4-.1-18-1.7-5.7-7.8-13.1-12.9-15.7-6.4-3.3-15.9-3.9-22.8-1.5zm17.1 13.2c8.7 7.6 6.9 24.8-3 29.2-4.7 2.1-7 1.8-11.6-1.4-3.6-2.6-5.7-7.8-5.7-14.5 0-13.4 11.6-21 20.3-13.3zM363 150.4c0 6.4.3 6.6 10.1 6.6h6.9v43h14l.2-21.8.3-21.7 8.3-.3 8.2-.3V145h-48v5.4zm182.7-4.7c-.4.3-.7 12.7-.7 27.5V200h13.7l10.9-17.3 10.9-17.2.3 17.2.2 17.3h13v-55.3l-3.7.7c-2.1.3-5.2.6-7 .6-3 0-3.7.9-13.5 16.2l-10.3 16.2-.3-16.7-.2-16.7h-6.4c-3.4 0-6.6.3-6.9.7z"/></svg>