<svg xmlns="http://www.w3.org/2000/svg" viewBox="0 0 2842.5288 694.53503" height="694.535" width="2842.529"><path d="M395.882 662.83c12.284.002 14.515 1.797 27.095 21.795l5.75 9.141h5.48c3.014 0 5.48-.19 5.48-.42 0-.54-15.464-23.963-17.068-25.852-.667-.785-2.353-2.307-3.746-3.38l-2.533-1.953 3.94-1.147c9.454-2.753 14.74-9.37 14.7-18.403-.042-9.287-5.475-16.295-14.061-18.136-2.619-.562-13.178-1.021-23.465-1.021H378.75v70.209l4.453.286 4.453.286.257-15.703.256-15.703 7.713.002zm-7.757-19.771v-11.333l14.766.355c16.5.397 18.829 1.059 21.198 6.027 1.919 4.025 1.934 6.231.068 9.84-2.61 5.048-7.38 6.399-22.673 6.423l-13.359.02V643.06zm241.122 48.873c2.219-1.142 5.582-3.569 7.474-5.393 3.699-3.568 8.982-14.061 7.67-15.237-.438-.393-2.554-1.14-4.7-1.661l-3.903-.947-1.613 4.224c-7.144 18.706-34.257 17.112-39.91-2.346-1.834-6.314-1.638-19.307.38-25.149 6.003-17.375 30.085-19.6 37.732-3.485 1.47 3.099 1.67 3.194 5.434 2.582 2.15-.349 4.264-.968 4.699-1.376 1.275-1.195-2.596-8.776-6.448-12.628-5.678-5.679-10.719-7.52-20.593-7.526-7.346-.004-9.203.348-14.352 2.725-7.148 3.301-12.466 8.981-15.168 16.203-3.982 10.644-3.344 26.558 1.443 36.006 6.217 12.268 14.865 17.058 29.668 16.43 6.076-.259 9.18-.876 12.187-2.422zm209.858-.654c13.244-6.224 19.57-18.344 18.46-35.374-.706-10.865-3.504-17.607-9.983-24.06-4.351-4.332-6.397-5.586-12.077-7.403-18.023-5.764-36.035 2.08-42.51 18.511-3.062 7.769-3.09 23.689-.054 31.264 5.354 13.362 17.291 20.761 32.57 20.189 6.064-.227 8.73-.84 13.594-3.127zm-22.979-6.187c-5.797-1.53-13.101-9.388-15.091-16.233-1.752-6.025-1.496-15.78.596-22.763 1.383-4.618 5.977-9.645 11.469-12.55 5.483-2.9 16.383-2.94 21.744-.077 8.046 4.295 12.488 12.008 13.31 23.11.74 10.014-1.437 16.531-7.574 22.667-6.603 6.604-14.465 8.483-24.454 5.846zm614.499-26.012v-35.625h-9.375v70.209l4.453.351c2.45.194 4.559.428 4.688.52.128.094.234-15.862.234-35.455zm191.731-27.188h11.706V623.454h-56.25v8.38l11.485.263 11.484.263.247 30.652.248 30.652 4.44.286 4.44.285.247-31.172.247-31.172zm366.124 59.387c9.592-4.508 14.011-9.962 17.335-21.395 2.088-7.182 1.476-19.396-1.343-26.816-6.31-16.61-25.094-24.646-43.274-18.513-8.057 2.718-15.57 10.018-18.657 18.125-3.212 8.442-3.664 20.71-1.047 28.427 2.577 7.596 5.565 12.29 10.07 15.823 7.679 6.02 13.384 7.848 23.322 7.476 6.064-.227 8.73-.84 13.594-3.127zm-23.949-6.56c-6.186-2.586-12.23-9.357-14.104-15.8-2.209-7.598-1.375-18.664 1.912-25.383 3.976-8.125 13.066-13.107 22.53-12.347 9.675.777 16.23 5.394 20.297 14.297 2.51 5.496 2.989 17.903.95 24.662-1.487 4.934-6.71 10.899-11.833 13.515-5.16 2.635-14.75 3.148-19.752 1.057zm817.5 7.026c3.094-1.264 7.418-3.44 9.61-4.837l3.984-2.54v-26.695l-15.001.28-15.002.279v8.284l10.079.266 10.078.266.278 6.357.277 6.357-6.187 2.896c-15.21 7.117-32.378 2.425-38.248-10.453-2.9-6.363-2.847-20.318.102-26.72 4.27-9.266 10.488-13.453 21.184-14.262 8.847-.67 14.958 1.777 19.202 7.687 1.608 2.239 2.923 4.788 2.923 5.667 0 1.208.512 1.45 2.11.996 1.16-.33 3.28-.857 4.711-1.17 2.794-.61 2.807-1.08.194-7.473-1.468-3.593-6.58-8.978-10.327-10.876-4.934-2.501-12.573-3.78-20-3.35-20.353 1.177-33.263 16.881-31.772 38.649 1.147 16.752 9.753 27.8 25.025 32.13 6.711 1.904 19.97 1.043 26.778-1.738zm-2765.157.85c0-.644 1.581-5.498 3.516-10.785l3.516-9.613 14.994.238 14.993.238 3.906 10.313 3.906 10.312 5.146.279 5.146.278-14.102-35.2-14.102-35.2h-9.806l-3.036 7.734c-1.67 4.254-4.032 10.055-5.25 12.89-1.218 2.837-4.953 12.118-8.3 20.626-3.348 8.507-7.146 18-8.44 21.093-3.287 7.856-3.248 7.97 2.758 7.97 3.5 0 5.156-.377 5.155-1.173zm13.588-37.5c1.756-4.77 4.424-11.773 5.93-15.564l2.736-6.893 2.875 7.83c1.58 4.307 4.163 11.31 5.738 15.565l2.864 7.734H27.268zm195.476 3.516v-35.156h-9.375v70.312h9.375zm789.595 8.289l.248-26.868 7.513 11.165c4.132 6.14 12.281 18.23 18.11 26.867L1052 693.766h10.188v-70.312H1052.84l-.248 26.807-.25 26.808-5.986-8.76c-3.293-4.82-11.438-16.883-18.1-26.809l-12.113-18.046h-10.206v70.312h9.346zm239.58 24.134c9.926-4.437 15.912-14.702 16.833-28.868.882-13.548-2.486-24.387-9.756-31.4-6.4-6.175-8.788-6.74-30.08-7.13l-18.985-.348v70.649l18.516-.343c17.028-.316 18.913-.521 23.473-2.56zm-32.393-32.189l.249-26.484h11.719c13.746 0 15.697.43 20.295 4.467 4.676 4.106 6.983 9.746 7.587 18.55.797 11.63-2.655 21.953-8.735 26.119-4.222 2.893-8.986 3.742-21.271 3.792l-10.093.04.249-26.484zm566.968-.234v-35.156h-9.375v70.312h9.375zm375.22 8.203l.248-26.953 3.801 5.625a12957.92 12957.92 0 0 1 18.078 26.953l14.278 21.328h10.25v-70.312H2202.216l-.248 26.872-.25 26.873-17.917-26.638-17.918-26.639-5.285-.28-5.285-.282v70.406h9.346zm207.905-8.203v-35.156h-9.375v70.312h9.375zm162.407 8.22l.249-26.934 11.27 16.857c6.2 9.271 14.362 21.392 18.139 26.935l6.866 10.078h10.131v-70.312h-9.346l-.249 26.953-.249 26.953-13.193-19.688c-7.257-10.828-15.4-22.957-18.095-26.953l-4.902-7.265h-10.216v70.312h9.346zM3.506 576.814c1.522-1.418 4.836-4.418 7.365-6.666 2.529-2.249 8.41-7.733 13.068-12.188 4.659-4.454 13.261-12.529 19.116-17.943 5.856-5.414 12.634-11.742 15.064-14.062 2.43-2.32 9.21-8.649 15.07-14.063 5.859-5.414 14.675-13.692 19.591-18.395 4.916-4.703 11.654-11.031 14.972-14.062 3.318-3.032 9.646-8.925 14.062-13.096a2847.873 2847.873 0 0 1 13.995-13.125c5.739-5.331 8.927-8.313 21.273-19.901 3.121-2.93 11.333-10.6 18.248-17.046a11601.64 11601.64 0 0 0 15.57-14.531c1.648-1.547 8.403-7.875 15.01-14.063 14.167-13.266 23.457-22.01 28.886-27.187 2.163-2.063 8.302-7.758 13.642-12.656 5.34-4.899 11.465-10.594 13.613-12.657 2.147-2.062 8.677-8.18 14.512-13.593 5.834-5.414 12.363-11.532 14.509-13.594 2.146-2.063 9.128-8.602 15.516-14.531 6.388-5.93 15.218-14.18 19.622-18.334a2119.83 2119.83 0 0 1 14.565-13.594 1527.93 1527.93 0 0 0 14.062-13.175 1302.06 1302.06 0 0 1 13.524-12.656c5.63-5.166 18.2-16.945 24.904-23.335 1.623-1.547 7.967-7.453 14.097-13.125s12.905-12 15.055-14.063c3.823-3.666 25.387-23.946 30.406-28.593 1.392-1.29 7.549-7.051 13.682-12.804s12.417-11.614 13.964-13.024c1.547-1.41 6.433-5.984 10.86-10.165a2363.055 2363.055 0 0 1 17.714-16.507c5.317-4.899 11.421-10.594 13.565-12.657 2.143-2.062 9.57-9.005 16.504-15.429 6.934-6.423 16.404-15.323 21.044-19.778 4.64-4.455 10.951-10.379 14.023-13.165 3.072-2.786 7.344-6.753 9.493-8.815 4.304-4.132 11.279-10.649 25.058-23.414 4.995-4.627 9.082-8.944 9.082-9.593 0-.945-61.377-1.184-308.906-1.204L0 0v289.696C0 449.028.166 579.39.37 579.39c.203 0 1.614-1.16 3.136-2.578zM834.227 475.82c11.706-1.759 19.041-3.479 29.894-7.01 10.023-3.262 28.895-11.037 30.537-12.582.618-.58 3.654-2.262 6.748-3.736 6.923-3.298 21.003-11.875 34.688-21.128 9.264-6.265 14.677-10.567 24.778-19.693 1.769-1.598 3.562-2.905 3.984-2.905.423 0 .769-.48.769-1.068 0-.587 3.109-4.321 6.908-8.298 8.642-9.045 17.822-22.838 24.42-36.688 4.586-9.629 6.121-13.8 11.312-30.728 8.359-27.257 6.858-89.197-2.781-114.806-2.523-6.703-9.861-20.423-12.144-22.706-.806-.806-1.472-1.751-1.48-2.101-.01-.35-1.803-2.558-3.985-4.908a339.251 339.251 0 0 1-7.719-8.659c-2.062-2.413-4.113-4.393-4.556-4.4-.443-.007-3.185-2.194-6.094-4.86-16.393-15.028-45.38-29.628-71.381-35.954-19.548-4.756-16.8-4.668-145.313-4.668H632.344l-3.965 2.119c-4.915 2.626-6.17 5.012-9.07 17.242-2.94 12.408-11.453 47.363-13.321 54.702-.788 3.094-2.548 10.265-3.913 15.937-1.365 5.672-2.815 10.454-3.222 10.627-.407.173-.518.674-.246 1.113.427.692-2.151 11.733-9.958 42.635-1.042 4.125-2.08 8.344-2.309 9.375-.228 1.032-1.899 7.782-3.713 15-1.815 7.22-3.483 13.905-3.708 14.858-2.07 8.769-7.229 29.884-7.936 32.486-.491 1.805-1.987 7.922-3.325 13.594s-3.008 12.422-3.712 15c-.704 2.578-2.372 9.539-3.707 15.469-1.334 5.93-2.824 12.046-3.31 13.593-.486 1.547-2.198 8.508-3.805 15.47-1.606 6.96-3.518 14.765-4.248 17.343-2.761 9.755-7.939 32.144-7.939 34.333 0 3.04 2.336 6.225 4.93 6.725 1.156.223 64.437.463 140.624.533 117.826.109 139.898-.08 147.736-1.256zM715.75 391.505c-1.419-2.166-1.425-2.73-.078-6.847.808-2.467 3.834-13.556 6.724-24.642 6.99-26.813 8.116-31.093 12.095-45.937a6426.16 6426.16 0 0 0 7.689-29.063c2.363-9.023 5.686-21.68 7.384-28.125 1.698-6.445 4.409-16.78 6.024-22.965 3.249-12.44 4.58-15.107 8.24-16.498 1.534-.584 14.103-.836 32.997-.662l30.52.281 5.602 2.751c5.067 2.488 12.95 9.354 17.847 15.543 12.497 15.797 16.906 40.01 11.266 61.863-1.264 4.898-3.19 11.226-4.28 14.062-1.09 2.836-2.325 6.211-2.743 7.5-1.477 4.548-10.12 22.113-14.07 28.594-13.396 21.98-29.318 37.511-44.892 43.791-5.144 2.075-6.325 2.143-42.035 2.425l-36.743.29zm694.141 80.42c4.68-3.278 5.995-11.58 3.437-21.689-.749-2.957-1.992-8.962-2.764-13.345-1.822-10.351-7.831-42.38-8.97-47.812-.759-3.617-4.98-25.686-6.277-32.813-.235-1.289-1.895-9.937-3.688-19.219-7.9-40.881-12.106-62.923-14.31-75-.718-3.932-4.934-26.12-11.934-62.812a1158.37 1158.37 0 0 0-3.19-15.938c-.968-4.64-3.05-15.609-4.626-24.375-3.618-20.116-4.26-22.34-7.523-26.055-4.753-5.413-3.672-5.35-92.432-5.35-88.452 0-85.04-.204-89.944 5.344-1.275 1.443-4.23 6.21-6.565 10.593-4.831 9.067-7.341 13.586-11.03 19.86-1.419 2.415-3.976 7.055-5.682 10.312-1.706 3.257-4.236 7.706-5.622 9.887-1.386 2.181-2.52 4.246-2.52 4.588 0 .587-10.316 18.999-16.096 28.726-1.46 2.457-2.654 4.66-2.654 4.895 0 .235-1.898 3.639-4.219 7.563-2.32 3.925-4.218 7.29-4.218 7.477 0 .188-1.413 2.79-3.14 5.782s-4.838 8.605-6.913 12.472c-2.076 3.867-6.627 12.094-10.114 18.281-11.026 19.565-17.613 31.39-25.329 45.47-1.837 3.35-4.053 7.358-4.924 8.905-.872 1.547-3.675 6.61-6.23 11.25a973.38 973.38 0 0 1-9.153 16.201c-2.48 4.27-4.51 8.033-4.51 8.364 0 .33-.57 1.266-1.266 2.08-.696.814-3.17 5.066-5.497 9.45-2.328 4.382-5.06 9.444-6.072 11.25-7.554 13.471-9.328 16.618-10.297 18.275-.606 1.034-1.967 3.568-3.024 5.63-1.057 2.063-2.331 4.383-2.831 5.157-2.161 3.343-17.564 31.056-21.828 39.272-3.235 6.235-3.477 11.889-.66 15.47l1.962 2.495 47.628-.26c44.695-.243 47.744-.365 49.53-1.98 1.72-1.559 7.092-10.016 14.389-22.654 1.488-2.578 5.798-9.749 9.577-15.935 6.228-10.196 7.212-11.351 10.52-12.35 5.09-1.536 121.136-1.71 124.48-.187 3.151 1.436 3.763 3.304 7.632 23.316 1.844 9.54 3.993 20.402 4.775 24.14l1.422 6.798h74.26c67.135 0 74.467-.147 76.44-1.53zm-237.656-147.901c.503-2.002 2.72-6.081 15.593-28.695 5.658-9.941 22.63-40.48 24.747-44.532 1.078-2.062 2.674-4.76 3.548-5.994l1.587-2.244.488 2.244c.982 4.517 6.165 32.609 9.926 53.807 1.098 6.187 2.659 14.28 3.468 17.983.81 3.703 1.218 7.394.907 8.203-.496 1.293-4.192 1.47-30.695 1.47h-30.131zm431.082 147.789c1.34-1.548 4.017-10.65 10.135-34.453 4.443-17.287 9.751-37.507 28.058-106.875 1.497-5.672 3.592-13.55 4.655-17.509 1.063-3.958 4.25-16.192 7.083-27.187 2.833-10.996 5.725-22.101 6.426-24.68.701-2.577 3.707-13.968 6.678-25.312a6690.036 6690.036 0 0 1 9.442-35.625c7.989-29.672 10.068-37.58 11.217-42.656.642-2.836 1.905-7.64 2.807-10.674a31.311 31.311 0 0 0 1.232-11.155c-.354-4.9-.798-5.986-3.4-8.31l-2.991-2.673h-139.346l-3.377 3.046c-2.728 2.461-3.846 4.623-5.807 11.235-1.336 4.503-2.819 9.988-3.295 12.188-.476 2.2-1.532 6.32-2.345 9.156-.814 2.836-3.971 14.859-7.017 26.718a5788.68 5788.68 0 0 1-10.275 39.375c-2.605 9.797-6.013 22.664-7.573 28.594-1.56 5.93-3.454 13.102-4.208 15.938-.755 2.836-2.68 10.417-4.279 16.847-1.599 6.43-3.059 11.938-3.244 12.239-.186.3-2.934 10.649-6.107 22.996-6.152 23.937-8.211 31.914-8.824 34.168-.21.773-1.215 4.78-2.233 8.906-1.637 6.637-12.033 46.132-18.631 70.781-1.311 4.899-2.74 10.69-3.177 12.87-.436 2.18-1.473 6.3-2.303 9.156-1.812 6.233-1.171 10.067 2.113 12.65 2.356 1.853 3.671 1.887 74.782 1.887 67.772 0 72.475-.105 73.804-1.641zm222.874-.483c2.324-1.178 4.188-6.312 10.8-29.751 3.281-11.628 13.004-44.28 18.35-61.622 2.363-7.66 3.193-9.355 4.127-8.42.643.643 1.342 1.593 1.554 2.112.422 1.035 16.765 24.228 25.698 36.47 3.094 4.24 6.047 8.364 6.562 9.163 2.987 4.631 8.642 12.843 10.513 15.265l2.895 3.75c.398.516 4.828 6.924 9.845 14.241 5.017 7.317 10.226 14.172 11.576 15.234 2.436 1.916 3.101 1.932 82.345 1.932 53.368 0 80.828-.327 82.713-.985 5.145-1.793 5.671-6.262 1.657-14.07-1.482-2.884-8.059-12.993-10.027-15.414-.42-.516-4.128-5.79-8.242-11.719-4.114-5.93-8.22-11.776-9.127-12.992-2.501-3.357-7.302-10.183-12.29-17.477-6.998-10.23-12.21-17.724-13.04-18.75-.418-.515-4.08-5.789-8.138-11.718a2046.312 2046.312 0 0 0-13.56-19.546c-3.4-4.82-6.604-9.428-7.12-10.238a50.547 50.547 0 0 0-2.07-2.955c-5.167-6.755-6.944-9.29-11.01-15.711-2.552-4.032-5.112-7.754-5.689-8.27-1.822-1.63-8.8-13.06-9.9-16.219-1.154-3.31.01-5.986 4.32-9.96 6.657-6.135 10.012-9.11 16.358-14.5 3.88-3.297 7.265-6.26 7.523-6.584.257-.324 5.742-5.216 12.187-10.872 6.445-5.655 12.188-10.708 12.762-11.23.573-.52 4.574-4.11 8.891-7.978a2063.016 2063.016 0 0 0 13.988-12.656c3.376-3.094 8.645-7.735 11.707-10.313 3.062-2.578 8.533-7.393 12.157-10.7 3.624-3.308 9.086-8.095 12.137-10.639 3.052-2.543 6.052-5.11 6.668-5.705 3.974-3.836 23.907-21.85 31.378-28.355 1.289-1.123 5.639-4.903 9.666-8.4 7.844-6.812 10.021-9.936 10.021-14.382 0-5.974 3.314-5.725-76-5.725h-71.833l-5.537 4.764c-3.045 2.62-6.658 5.784-8.03 7.031-1.372 1.247-2.71 2.268-2.973 2.268-.263 0-2.094 1.593-4.068 3.542-1.975 1.948-4.473 4.162-5.552 4.921-1.806 1.27-9.575 7.62-12.011 9.818-.572.515-3.568 3.042-6.659 5.614-3.09 2.573-6.09 5.104-6.668 5.625-.577.522-5.825 4.956-11.661 9.855-5.836 4.898-12.572 10.593-14.967 12.656-4.562 3.927-5.683 4.86-14.055 11.701-2.828 2.311-6.714 5.658-8.636 7.438-1.922 1.78-4.77 4.045-6.328 5.032-3.646 2.308-3.645 2.291.353-13.998 1.753-7.142 3.739-15.622 4.412-18.845.674-3.223 1.56-5.86 1.969-5.86.41 0 .744-1.307.744-2.905 0-1.599.996-6.767 2.212-11.485 7.294-28.282 7.538-31.53 2.689-35.8l-2.557-2.25-71.305-.03c-55.614-.023-71.654.229-72.887 1.142-1.083.803-4.216 11.653-9.95 34.454-4.604 18.304-11.199 44.25-14.656 57.656-3.457 13.406-6.817 26.695-7.465 29.531-1.097 4.795-3.906 15.664-10.88 42.092-3.538 13.408-18.585 72.91-19.204 75.938-.252 1.236-1.685 6.932-3.184 12.656-5.702 21.785-11.527 44.623-14.49 56.814-1.692 6.961-3.976 15.655-5.075 19.32-2.75 9.174-2.61 12.087.742 15.44l2.74 2.74 70.151-.014c53.793-.01 70.683-.284 72.434-1.172zm469.594-3.83c2.06-1.866 3.93-6.599 6.723-17.015.968-3.61 2.443-9.094 3.278-12.188.834-3.093 4.671-17.859 8.526-32.812 3.854-14.953 8.834-34.149 11.065-42.656 2.23-8.508 7.728-29.602 12.216-46.875 4.488-17.274 9.153-35.204 10.368-39.844 3.379-12.911 8.225-31.681 16.944-65.625 4.371-17.016 8.364-32.243 8.873-33.838.51-1.595 2.712-9.61 4.895-17.813 5.761-21.643 5.332-29.208-1.974-34.798l-3.417-2.614-67.277-.252c-74.278-.279-70.365-.575-75.135 5.679-2.243 2.94-3.748 7.357-6.778 19.886-.748 3.094-1.958 7.523-2.688 9.844-.73 2.32-2.15 7.593-3.156 11.718-2.209 9.058-13.381 52.742-16.665 65.157a3656.699 3656.699 0 0 0-5.01 19.218 6187.737 6187.737 0 0 1-5.603 21.563c-1.621 6.187-5.688 22.008-9.037 35.156-3.348 13.149-6.546 25.35-7.105 27.116-.56 1.765-1.994 7.25-3.188 12.187-1.193 4.938-4.108 16.361-6.478 25.385-3.763 14.331-11.126 42.951-18.74 72.838-3.092 12.14-3.103 17.44-.04 20.502l2.317 2.318 72.584-.25c69.126-.24 72.675-.335 74.501-1.988zm178.47-.981c1.782-1.837 3.634-5.112 4.372-7.735 3.038-10.805 4.879-17.5 8.083-29.393 1.876-6.96 4.26-15.61 5.296-19.219 1.038-3.609 2.875-10.359 4.084-15 1.208-4.64 3.314-12.445 4.678-17.343a1519.354 1519.354 0 0 0 4.822-17.813c1.288-4.898 3.184-11.648 4.215-15 1.03-3.351 2.223-7.781 2.65-9.844.427-2.062 2.548-10.078 4.714-17.812 2.165-7.735 4.955-17.86 6.199-22.5 3.115-11.623 3.114-11.62 4.276-9.55.526.936 2.556 6.632 4.512 12.657 1.956 6.025 4.009 12.01 4.561 13.3.552 1.288 2.264 6.35 3.803 11.25 1.54 4.898 4.886 15.023 7.436 22.5 2.55 7.476 5.473 16.124 6.497 19.218 1.024 3.094 6.574 19.547 12.334 36.562 5.76 17.016 12.175 36.211 14.257 42.657 2.08 6.445 4.596 13.507 5.589 15.693.993 2.185 1.806 4.281 1.806 4.657 0 1.436 5.062 4.946 7.857 5.45 1.608.288 38.472.403 81.92.253l78.997-.272 2.227-2.793c1.225-1.536 2.866-5.333 3.647-8.438.781-3.104 5.285-21.043 10.008-39.863 4.724-18.82 9.814-38.86 11.31-44.531 1.498-5.672 4.661-18.117 7.03-27.656 4.4-17.713 23.63-93.8 26.066-103.125.74-2.836 2.056-8.32 2.923-12.188.867-3.867 2.144-8.93 2.837-11.25.693-2.32 2.39-9.07 3.77-15s3.32-13.523 4.312-16.875c.991-3.351 2.404-8.836 3.14-12.187.735-3.352 2.83-11.79 4.654-18.75 5.1-19.458 4.434-31.68-1.881-34.558-1.647-.75-15.55-1.067-46.79-1.067h-44.449l-3.677 3.515c-2.554 2.442-4.145 5.09-5.208 8.672-2.276 7.668-13.26 48.087-15.414 56.719-1.83 7.33-2.595 10.18-9.198 34.219-1.77 6.445-3.372 12.351-3.559 13.125-1.186 4.912-6.334 24.325-8.328 31.406-1.307 4.64-3.897 14.344-5.757 21.562-4.081 15.844-5.132 19.22-5.986 19.22-.97 0-3.182-6.449-31.998-93.282-14.544-43.828-27.105-81.164-27.914-82.969-2.405-5.37-5.898-9.49-9.227-10.88-2.588-1.082-16.466-1.307-80.52-1.307h-77.392l-3.645 2.3c-3.268 2.064-6.548 7.683-5.893 10.098.257.95-2.144 11.082-4.854 20.477-2.174 7.538-8.397 31.263-15.108 57.593-3.973 15.59-12.242 47.212-14.097 53.907-.785 2.836-4.13 15.703-7.434 28.593-3.304 12.891-6.687 25.97-7.518 29.063-2.81 10.465-7.189 27.11-11.712 44.531-11.085 42.692-16.765 64.273-20.236 76.875-3.329 12.088-2.835 17.933 1.879 22.266l3.315 3.047h94.625z" fill="#fbfbfb"/><path d="M383.203 693.95l-4.453-.287v-70.209h18.704c10.287 0 20.846.46 23.465 1.02 8.586 1.842 14.02 8.85 14.06 18.137.04 9.033-5.245 15.65-14.7 18.403l-3.939 1.147 2.533 1.952c1.393 1.074 3.079 2.596 3.746 3.381 1.604 1.89 17.069 25.311 17.069 25.852 0 .23-2.467.42-5.48.42h-5.481l-5.75-9.14c-12.58-19.999-14.811-21.794-27.095-21.796l-7.713-.001-.256 15.703-.257 15.703-4.453-.285zm35.563-41.38c3.987-1.811 6.859-5.726 6.859-9.35 0-3.181-2.937-8.266-5.52-9.559-1.595-.797-7.601-1.348-17.214-1.58l-14.766-.355v22.665l13.36-.02c11.091-.018 14.024-.323 17.281-1.802zm186.39 40.883c-6.003-1.996-9.36-4.045-12.519-7.642-6.882-7.84-10.239-19.516-9.187-31.962 1.175-13.895 7.032-23.223 17.667-28.134 5.15-2.377 7.006-2.73 14.352-2.725 9.874.006 14.915 1.847 20.593 7.526 3.852 3.852 7.723 11.433 6.448 12.628-.435.408-2.55 1.027-4.699 1.376-3.764.612-3.963.517-5.434-2.582-7.647-16.115-31.73-13.89-37.732 3.485-2.018 5.842-2.214 18.835-.38 25.15 5.653 19.457 32.766 21.051 39.91 2.345l1.613-4.224 3.903.947c2.146.52 4.262 1.268 4.7 1.661 1.312 1.176-3.971 11.67-7.67 15.237-5.77 5.565-10.446 7.423-19.661 7.814-5.179.22-9.522-.109-11.904-.9zm209.063-.01c-10.467-3.47-17.518-9.842-21.278-19.226-3.035-7.576-3.008-23.496.053-31.265 6.476-16.431 24.488-24.275 42.51-18.511 5.681 1.817 7.727 3.07 12.078 7.404 6.479 6.452 9.277 13.194 9.984 24.059 1.466 22.53-11.18 37.719-32.055 38.501-4.524.17-9.043-.215-11.292-.961zm17.159-8.284c6.504-1.638 13.476-8.899 15.64-16.291 3.046-10.398.422-24.076-5.896-30.735-4.59-4.837-9.273-6.667-17.06-6.667-8.04 0-12.726 1.927-18.076 7.436-3.731 3.842-5.338 8.58-6.035 17.8-.757 10.01 1.36 16.31 7.565 22.515 6.647 6.647 13.896 8.452 23.862 5.942zm594.325 8.856l-4.453-.352v-70.209h9.375v35.625c0 19.593-.105 35.549-.234 35.456-.13-.093-2.239-.327-4.688-.52zm180.013-.065l-4.44-.286-.248-30.652-.247-30.652-11.484-.263-11.484-.263v-8.38h56.25V631.89h-23.413l-.247 31.172-.247 31.172-4.44-.285zm357.878-.497c-11.57-3.808-18.025-10.336-22.1-22.347-2.617-7.717-2.165-19.985 1.048-28.426 3.085-8.108 10.6-15.407 18.656-18.125 14.039-4.737 29.01-1.062 37.876 9.297 9.169 10.71 10.698 30.773 3.423 44.886-4.702 9.12-15.437 15.211-27.61 15.667-4.492.169-9.06-.217-11.293-.952zm20.689-9.79c5.123-2.617 10.346-8.581 11.834-13.515 2.038-6.76 1.56-19.167-.951-24.663-4.067-8.903-10.622-13.52-20.297-14.297-9.464-.76-18.554 4.222-22.53 12.347-3.287 6.72-4.12 17.785-1.912 25.384 1.873 6.442 7.918 13.214 14.104 15.8 5.003 2.091 14.592 1.578 19.752-1.057zm770.97 9.82c-15.272-4.33-23.877-15.38-25.024-32.131-1.491-21.767 11.418-37.471 31.771-38.65 17.29-1 27.923 5.335 32.13 19.145.496 1.625.131 2.091-1.996 2.556a94.963 94.963 0 0 0-4.712 1.169c-1.597.455-2.11.213-2.11-.996 0-.878-1.315-3.428-2.922-5.666-4.244-5.91-10.355-8.357-19.202-7.688-10.696.81-16.915 4.996-21.185 14.263-2.949 6.401-3.002 20.356-.102 26.719 5.87 12.879 23.039 17.57 38.248 10.453l6.188-2.895-.278-6.357-.278-6.357-10.078-.266-10.078-.266v-8.285l15.001-.28 15.002-.278v26.695l-3.985 2.54c-7.76 4.945-14.63 7.11-23.672 7.461-5.084.197-10.137-.155-12.715-.886zM6.585 692.594c.012-.644 1.081-3.703 2.375-6.797 1.295-3.093 5.093-12.586 8.44-21.093 3.348-8.508 7.083-17.79 8.3-20.625 1.219-2.836 3.582-8.637 5.251-12.891l3.036-7.734h9.806l14.102 35.2 14.102 35.2-5.146-.278-5.146-.279-3.906-10.312-3.906-10.313-14.993-.238-14.994-.238-3.516 9.613c-1.935 5.287-3.517 10.14-3.516 10.785 0 .796-1.655 1.172-5.155 1.172-3.512 0-5.15-.374-5.134-1.172zm41.156-36.562a7155.052 7155.052 0 0 1-5.738-15.565l-2.875-7.83-2.736 6.893c-1.506 3.79-4.174 10.795-5.93 15.564l-3.194 8.672h23.337l-2.864-7.734zm168.822 2.578v-35.156h9.375v70.312h-9.375V658.61zm789.375 0v-35.156h10.206l12.113 18.046c6.662 9.926 14.807 21.99 18.1 26.808l5.987 8.761.249-26.808.248-26.807H1062.188v70.312H1052l-10.597-15.703a31414.79 31414.79 0 0 1-18.109-26.867l-7.513-11.165-.248 26.868-.25 26.867H1005.939V658.61zm207.187.002v-35.325l18.984.348c21.293.39 23.68.956 30.081 7.13 7.27 7.014 10.638 17.853 9.756 31.4-.921 14.166-6.907 24.432-16.832 28.869-4.56 2.038-6.445 2.244-23.473 2.56l-18.516.342v-35.324zm33.506 25.867c11.015-2.132 17.034-13.121 15.939-29.1-.604-8.805-2.91-14.446-7.587-18.552-4.598-4.038-6.55-4.467-20.295-4.467h-11.72l-.248 26.484-.25 26.485 10.094-.041c5.55-.023 11.88-.387 14.067-.81zm533.682-25.869v-35.156h9.375v70.312h-9.375V658.61zm375-.047V623.36l5.285.281 5.285.281 17.918 26.639 17.918 26.638.248-26.873.25-26.872H2211.561v70.312h-10.25l-14.277-21.328a12957.92 12957.92 0 0 0-18.078-26.953l-3.8-5.625-.25 26.953-.248 26.953H2155.312v-35.203zm208.124.047v-35.156h9.376v70.312h-9.376V658.61zm162.188 0v-35.156h10.216l4.902 7.265c2.696 3.996 10.838 16.125 18.095 26.953l13.193 19.688.249-26.953.249-26.953h9.346v70.312h-10.131l-6.866-10.078c-3.777-5.543-11.94-17.664-18.138-26.935l-11.271-16.857-.249 26.935-.249 26.935h-9.346V658.61zM0 289.696V0l308.906.024c247.529.02 308.906.26 308.906 1.204 0 .649-4.087 4.966-9.082 9.593-13.78 12.765-20.754 19.282-25.058 23.414-2.15 2.062-6.42 6.03-9.493 8.815-3.072 2.786-9.382 8.71-14.023 13.165-4.64 4.455-14.11 13.355-21.044 19.778-6.934 6.424-14.361 13.367-16.504 15.43-2.144 2.062-8.248 7.757-13.565 12.656a2362.846 2362.846 0 0 0-17.715 16.507c-4.426 4.18-9.312 8.755-10.86 10.165-1.546 1.41-7.83 7.271-13.963 13.024a5542.456 5542.456 0 0 1-13.682 12.804c-5.019 4.647-26.583 24.927-30.406 28.593-2.15 2.063-8.925 8.391-15.055 14.063-6.13 5.672-12.474 11.578-14.097 13.125-6.704 6.39-19.274 18.168-24.904 23.335a1301.95 1301.95 0 0 0-13.524 12.656 1527.93 1527.93 0 0 1-14.062 13.175 2119.58 2119.58 0 0 0-14.565 13.594 4252.74 4252.74 0 0 1-19.622 18.334c-6.388 5.93-13.37 12.468-15.516 14.53-2.146 2.063-8.675 8.18-14.51 13.595-5.834 5.414-12.364 11.53-14.511 13.593-2.148 2.063-8.274 7.758-13.614 12.657-5.34 4.898-11.478 10.593-13.64 12.656-5.43 5.177-14.72 13.921-28.887 27.187a36025.081 36025.081 0 0 0-15.01 14.063c-1.649 1.547-8.655 8.086-15.57 14.531a9884.598 9884.598 0 0 0-18.248 17.046c-12.347 11.588-15.534 14.57-21.273 19.901-3.281 3.048-9.579 8.954-13.995 13.125-4.416 4.171-10.744 10.064-14.062 13.096-3.318 3.03-10.056 9.359-14.972 14.062-4.916 4.703-13.732 12.981-19.591 18.395-5.86 5.414-12.64 11.742-15.07 14.063-2.43 2.32-9.208 8.648-15.064 14.062-5.855 5.414-14.457 13.489-19.116 17.943-4.659 4.455-10.54 9.94-13.068 12.188-2.529 2.248-5.843 5.248-7.365 6.666-1.522 1.418-2.933 2.578-3.136 2.578-.204 0-.37-130.363-.37-289.695zm545.868 186.847c-2.595-.5-4.93-3.686-4.93-6.725 0-2.189 5.177-24.578 7.938-34.333.73-2.578 2.642-10.383 4.248-17.344 1.607-6.96 3.32-13.922 3.805-15.469.486-1.547 1.976-7.664 3.31-13.593 1.335-5.93 3.003-12.891 3.707-15.47.704-2.577 2.374-9.327 3.712-15 1.338-5.671 2.834-11.788 3.325-13.593.707-2.602 5.866-23.717 7.936-32.486.225-.953 1.893-7.639 3.708-14.858 1.814-7.218 3.485-13.968 3.713-15 .228-1.03 1.267-5.25 2.31-9.375 7.806-30.902 10.384-41.943 9.957-42.635-.272-.439-.16-.94.246-1.113.407-.173 1.857-4.955 3.222-10.627 1.365-5.672 3.125-12.843 3.913-15.937 1.868-7.34 10.38-42.294 13.322-54.702 2.9-12.23 4.154-14.616 9.069-17.242l3.965-2.119h120.468c128.512 0 125.765-.088 145.313 4.668 26.001 6.326 54.989 20.926 71.381 35.954 2.909 2.666 5.65 4.853 6.094 4.86.443.007 2.494 1.987 4.556 4.4a339.247 339.247 0 0 0 7.719 8.66c2.182 2.349 3.975 4.557 3.984 4.907.01.35.675 1.295 1.48 2.1 2.284 2.284 9.622 16.004 12.145 22.707 7.687 20.424 10.71 67.332 6.251 96.994-1.054 7.012-2.616 15.027-3.47 17.812-5.19 16.928-6.726 21.099-11.313 30.728-6.597 13.85-15.777 27.643-24.419 36.688-3.8 3.977-6.908 7.711-6.908 8.298 0 .588-.346 1.068-.769 1.068-.422 0-2.215 1.307-3.984 2.905-10.101 9.126-15.514 13.428-24.778 19.693-13.685 9.253-27.765 17.83-34.688 21.128-3.093 1.474-6.13 3.156-6.748 3.736-3.095 2.911-32.45 13.823-45.202 16.802-18.02 4.211-16.793 4.18-162.965 4.046-76.187-.07-139.468-.31-140.623-.533zm250.206-85.392c15.574-6.28 31.496-21.811 44.892-43.791 3.95-6.48 12.593-24.046 14.07-28.594.418-1.289 1.653-4.664 2.743-7.5 10.828-28.175 8.2-56.728-6.986-75.925-4.896-6.19-12.78-13.055-17.847-15.543l-5.602-2.75-30.52-.282c-18.894-.174-31.463.078-32.998.662-3.659 1.39-4.99 4.057-8.239 16.498a13017.02 13017.02 0 0 1-6.024 22.965c-1.698 6.445-5.021 19.102-7.384 28.125a6426.16 6426.16 0 0 1-7.689 29.063c-3.979 14.844-5.106 19.124-12.095 45.937-2.89 11.086-5.916 22.175-6.724 24.642-1.347 4.116-1.34 4.681.078 6.847l1.547 2.36 36.743-.29c35.71-.281 36.89-.35 42.035-2.424zm461.694 75.506c-.782-3.739-2.931-14.602-4.775-24.14-3.87-20.013-4.48-21.881-7.632-23.317-3.344-1.524-119.39-1.35-124.48.187-3.308.999-4.292 2.154-10.52 12.35-3.779 6.186-8.089 13.357-9.577 15.935-7.297 12.638-12.669 21.095-14.39 22.653-1.785 1.616-4.835 1.738-49.53 1.981l-47.627.26-1.962-2.495c-2.817-3.581-2.575-9.235.66-15.47 4.264-8.216 19.667-35.929 21.828-39.272.5-.774 1.774-3.094 2.83-5.157 1.058-2.062 2.419-4.596 3.025-5.63.97-1.657 2.743-4.804 10.297-18.276 1.011-1.805 3.744-6.867 6.072-11.25 2.327-4.383 4.801-8.635 5.497-9.449.697-.814 1.266-1.75 1.266-2.08 0-.33 2.03-4.094 4.51-8.364 2.48-4.27 6.6-11.56 9.154-16.2 2.554-4.641 5.357-9.704 6.229-11.25.871-1.548 3.087-5.555 4.924-8.907 7.716-14.08 14.303-25.904 25.329-45.469 3.487-6.187 8.038-14.414 10.114-18.28 2.075-3.868 5.186-9.48 6.913-12.473 1.727-2.992 3.14-5.594 3.14-5.782 0-.188 1.898-3.552 4.218-7.477 2.32-3.924 4.219-7.328 4.219-7.563 0-.235 1.194-2.438 2.654-4.895 5.78-9.727 16.096-28.139 16.096-28.726 0-.342 1.134-2.407 2.52-4.588 1.386-2.181 3.916-6.63 5.622-9.887 1.706-3.257 4.263-7.897 5.683-10.312 3.688-6.274 6.198-10.793 11.03-19.86 2.335-4.383 5.29-9.15 6.564-10.593 4.904-5.548 1.492-5.345 89.944-5.345 88.76 0 87.68-.063 92.432 5.35 3.263 3.717 3.905 5.94 7.523 26.056 1.576 8.766 3.658 19.735 4.625 24.375a1158.4 1158.4 0 0 1 3.19 15.938c7.001 36.692 11.217 58.88 11.935 62.812 2.204 12.077 6.41 34.119 14.31 75 1.793 9.282 3.453 17.93 3.688 19.22 1.296 7.126 5.518 29.195 6.277 32.812 1.139 5.433 7.148 37.46 8.97 47.812.772 4.383 2.015 10.388 2.764 13.345 2.558 10.11 1.243 18.411-3.437 21.689-1.973 1.382-9.305 1.529-76.44 1.529h-74.26l-1.422-6.797zm-25.27-141.861c.31-.809-.098-4.5-.907-8.203-.81-3.703-2.37-11.796-3.468-17.983-3.762-21.198-8.944-49.29-9.926-53.807l-.488-2.244-1.587 2.244c-.874 1.234-2.47 3.932-3.548 5.994-2.117 4.052-19.089 34.591-24.747 44.532-12.874 22.614-15.09 26.693-15.593 28.695l-.562 2.242h30.13c26.504 0 30.2-.177 30.696-1.47zm222.232 146.771c-3.284-2.583-3.924-6.417-2.113-12.65.83-2.855 1.867-6.976 2.303-9.156.436-2.18 1.866-7.971 3.177-12.87 6.598-24.649 16.994-64.144 18.631-70.781 1.018-4.125 2.023-8.133 2.233-8.906.613-2.254 2.673-10.23 8.824-34.168 3.173-12.347 5.92-22.696 6.107-22.996.186-.301 1.646-5.808 3.244-12.239 1.599-6.43 3.524-14.011 4.279-16.847.755-2.836 2.648-10.008 4.208-15.938 1.56-5.93 4.968-18.797 7.573-28.594a5788.68 5788.68 0 0 0 10.275-39.375c3.046-11.859 6.203-23.882 7.017-26.718.813-2.836 1.869-6.957 2.345-9.156.476-2.2 1.959-7.685 3.295-12.188 1.961-6.612 3.079-8.774 5.807-11.235l3.377-3.046h139.346l2.992 2.673c2.6 2.324 3.045 3.41 3.4 8.31.268 3.72-.15 7.514-1.233 11.155-.902 3.035-2.165 7.838-2.807 10.674-1.149 5.075-3.228 12.984-11.217 42.656-2.222 8.25-6.47 24.282-9.442 35.625-2.971 11.344-5.977 22.735-6.678 25.313-.701 2.578-3.593 13.683-6.426 24.679-2.832 10.995-6.02 23.23-7.083 27.187a5123.894 5123.894 0 0 0-4.655 17.509c-18.307 69.368-23.615 89.588-28.058 106.875-6.118 23.803-8.795 32.905-10.135 34.453-1.329 1.536-6.032 1.64-73.804 1.64-71.11 0-72.426-.033-74.782-1.886zm226.135-1.791c-3.353-3.353-3.493-6.266-.742-15.44 1.099-3.665 3.383-12.359 5.075-19.32 2.963-12.19 8.788-35.03 14.49-56.814 1.499-5.724 2.932-11.42 3.184-12.656.619-3.028 15.666-62.53 19.204-75.938 6.974-26.428 9.783-37.297 10.88-42.092.648-2.836 4.008-16.125 7.465-29.531 3.457-13.406 10.052-39.352 14.656-57.656 5.734-22.8 8.867-33.65 9.95-34.454 1.233-.914 17.273-1.165 72.887-1.142l71.305.03 2.557 2.25c4.849 4.27 4.605 7.518-2.689 35.8-1.216 4.718-2.212 9.886-2.212 11.485 0 1.598-.335 2.906-.744 2.906-.41 0-1.295 2.636-1.969 5.859-.673 3.223-2.659 11.703-4.412 18.845-3.998 16.29-3.999 16.306-.353 13.998 1.559-.987 4.406-3.251 6.328-5.032 1.922-1.78 5.808-5.127 8.636-7.438 8.372-6.84 9.493-7.774 14.055-11.701 2.395-2.063 9.13-7.758 14.967-12.656 5.836-4.899 11.084-9.333 11.661-9.855.577-.521 3.578-3.052 6.668-5.625 3.09-2.572 6.087-5.099 6.659-5.614 2.436-2.197 10.205-8.547 12.01-9.818 1.08-.759 3.578-2.973 5.553-4.922 1.974-1.948 3.805-3.541 4.068-3.541.263 0 1.601-1.02 2.973-2.268 1.372-1.247 4.985-4.41 8.03-7.031l5.537-4.764h71.833c79.314 0 76-.25 76 5.725 0 4.446-2.177 7.57-10.02 14.382-4.028 3.497-8.378 7.277-9.667 8.4-7.47 6.505-27.404 24.519-31.378 28.355-.616.595-3.616 3.162-6.668 5.705-3.051 2.544-8.513 7.33-12.137 10.638-3.624 3.308-9.095 8.123-12.157 10.701-3.062 2.578-8.33 7.22-11.707 10.313-3.377 3.094-9.671 8.789-13.988 12.656a4504.684 4504.684 0 0 0-8.891 7.979c-.574.52-6.317 5.574-12.762 11.23-6.445 5.655-11.93 10.547-12.187 10.871-.258.325-3.644 3.287-7.523 6.583-6.346 5.391-9.701 8.366-16.358 14.5-4.314 3.975-5.474 6.65-4.32 9.961 1.1 3.158 8.078 14.59 9.9 16.22.577.515 3.137 4.236 5.69 8.269 4.065 6.42 5.842 8.956 11.01 15.711a50.547 50.547 0 0 1 2.07 2.955c.515.81 3.719 5.418 7.12 10.238 3.4 4.82 9.501 13.616 13.56 19.546 4.057 5.93 7.719 11.203 8.136 11.718.831 1.026 6.043 8.52 13.04 18.75 4.989 7.294 9.79 14.12 12.29 17.477.907 1.216 5.014 7.062 9.128 12.992 4.114 5.93 7.822 11.203 8.242 11.719 1.968 2.421 8.545 12.53 10.027 15.414 4.014 7.808 3.488 12.277-1.657 14.07-1.885.658-29.345.985-82.713.985-79.244 0-79.91-.016-82.345-1.932-1.35-1.062-6.56-7.917-11.576-15.234-5.017-7.317-9.447-13.725-9.845-14.24-.398-.516-1.7-2.204-2.895-3.75-1.87-2.423-7.526-10.635-10.513-15.266-.515-.8-3.468-4.922-6.562-9.162-8.933-12.243-25.276-35.436-25.698-36.47-.212-.52-.911-1.47-1.554-2.114-.934-.934-1.764.76-4.126 8.421-5.347 17.343-15.07 49.994-18.35 61.622-6.613 23.439-8.477 28.573-10.8 29.751-1.752.888-18.642 1.162-72.435 1.172l-70.15.014-2.74-2.74zm465.516-2.357c-3.063-3.062-3.052-8.361.04-20.502 7.614-29.887 14.978-58.507 18.74-72.838 2.37-9.024 5.285-20.447 6.479-25.385 1.193-4.938 2.628-10.422 3.187-12.187.56-1.765 3.757-13.967 7.105-27.116 3.35-13.148 7.416-28.969 9.038-35.156 1.621-6.188 4.143-15.89 5.603-21.563 1.46-5.672 3.714-14.32 5.01-19.218 3.283-12.415 14.455-56.099 16.664-65.157 1.005-4.125 2.426-9.398 3.156-11.718.73-2.32 1.94-6.75 2.688-9.844 3.03-12.53 4.535-16.945 6.778-19.886 4.77-6.254.857-5.958 75.135-5.68l67.277.253 3.417 2.614c7.306 5.59 7.735 13.155 1.974 34.798-2.183 8.202-4.386 16.218-4.895 17.813-.51 1.595-4.502 16.822-8.873 33.838-8.719 33.944-13.565 52.714-16.944 65.625-1.215 4.64-5.88 22.57-10.368 39.844a28783.063 28783.063 0 0 1-12.217 46.875c-2.23 8.507-7.21 27.703-11.064 42.656-3.855 14.953-7.692 29.719-8.527 32.812-.834 3.094-2.31 8.578-3.277 12.188-2.792 10.416-4.663 15.15-6.724 17.014-1.826 1.653-5.375 1.748-74.5 1.987l-72.585.251-2.318-2.318zm226.839-.762c-4.714-4.333-5.208-10.178-1.879-22.266 3.47-12.602 9.151-34.183 20.236-76.875 4.523-17.42 8.901-34.066 11.712-44.531.83-3.094 4.214-16.172 7.518-29.063 3.303-12.89 6.649-25.757 7.434-28.593 1.855-6.695 10.124-38.316 14.097-53.907 6.71-26.33 12.934-50.055 15.108-57.593 2.71-9.395 5.111-19.528 4.854-20.477-.655-2.415 2.625-8.034 5.893-10.098l3.645-2.3h77.392c64.054 0 77.932.225 80.52 1.306 3.329 1.391 6.822 5.51 9.227 10.881.809 1.805 13.37 39.14 27.914 82.969 28.816 86.833 31.028 93.281 31.998 93.281.854 0 1.905-3.375 5.986-19.219 1.86-7.218 4.45-16.922 5.757-21.562 1.994-7.08 7.142-26.494 8.328-31.406.187-.774 1.788-6.68 3.559-13.125 6.603-24.04 7.369-26.889 9.198-34.22 2.153-8.63 13.138-49.05 15.414-56.718 1.063-3.581 2.654-6.23 5.208-8.672l3.677-3.515h44.448c31.241 0 45.144.317 46.79 1.067 6.316 2.877 6.981 15.1 1.882 34.558-1.824 6.96-3.919 15.398-4.654 18.75-.736 3.351-2.149 8.836-3.14 12.187-.992 3.352-2.932 10.945-4.312 16.875-1.38 5.93-3.077 12.68-3.77 15-.693 2.32-1.97 7.383-2.837 11.25-.867 3.867-2.183 9.352-2.923 12.188-2.435 9.325-21.667 85.412-26.065 103.125-2.37 9.539-5.533 21.984-7.03 27.656-1.497 5.672-6.587 25.71-11.31 44.531-4.724 18.82-9.228 36.759-10.009 39.863-.78 3.105-2.422 6.902-3.647 8.438l-2.227 2.793-78.996.272c-43.449.15-80.313.035-81.92-.254-2.796-.503-7.858-4.013-7.858-5.449 0-.376-.813-2.472-1.806-4.657-.993-2.186-3.508-9.248-5.59-15.693-2.08-6.446-8.496-25.641-14.256-42.657-5.76-17.015-11.31-33.468-12.334-36.562-1.024-3.094-3.947-11.742-6.497-19.219-2.55-7.476-5.896-17.601-7.436-22.5-1.54-4.898-3.25-9.96-3.803-11.25-.552-1.289-2.605-7.274-4.56-13.299-1.957-6.025-3.988-11.72-4.513-12.656-1.162-2.071-1.16-2.074-4.276 9.549-1.244 4.64-4.034 14.765-6.2 22.5-2.165 7.734-4.286 15.75-4.713 17.812-.427 2.063-1.62 6.493-2.65 9.844-1.031 3.352-2.928 10.102-4.215 15a1519.354 1519.354 0 0 1-4.822 17.813 1282.596 1282.596 0 0 0-4.678 17.343c-1.209 4.641-3.046 11.391-4.084 15-1.037 3.61-3.42 12.258-5.296 19.22a2413.595 2413.595 0 0 1-8.084 29.392c-.737 2.623-2.589 5.898-4.372 7.735l-3.093 3.185h-94.625l-3.315-3.047z"/></svg>