<svg xmlns="http://www.w3.org/2000/svg" viewBox="0 0 880.73328 194.6805" height="194.68" width="880.733"><path d="M90.715 192.576c-24.597-8.111-63.552-38.868-79.584-62.836-15.374-22.984-14.918-37.647 1.962-63.075 15.988-24.085 53.615-55.623 76.7-64.289 9.628-3.614 24.337-3.043 33.233 1.29 18.425 8.973 32.567 35.876 36.809 70.022.724 5.826 1.316 13.55 1.316 17.167v6.574l-5.72-5.48c-7.965-7.633-17.673-12.46-35.02-17.415-8.186-2.338-17.013-5.144-19.613-6.235-7.533-3.161-22.806-14.272-33.194-24.147-5.268-5.009-10.169-9.123-10.89-9.144-2.626-.074-4.313 3.074-4.3 8.025.022 9.281 8.483 23.207 24.903 40.986l7.78 8.424-9.16-3.861c-5.039-2.124-9.695-4.368-10.349-4.986-2.121-2.01-6.926-1.29-7.085 1.062-.684 10.102 9.06 20.985 30.148 33.674 5.156 3.103 7.969 5.345 6.25 4.983-8.619-1.816-17.246-2.266-18.064-.943-.477.771.159 3.5 1.411 6.063 3.247 6.644 13.676 13.252 28.528 18.077 11.457 3.721 12.136 4.113 8.14 4.697-5.709.834-6.263 3.956-1.542 8.677 4.347 4.348 14.09 7.441 24.849 7.89l7.696.32-2.071 3.618c-3.897 6.804-13.83 15.842-21.041 19.143-9.584 4.388-21.985 5.052-32.092 1.72zm242.103-45.646c-12.66-2.89-20.12-7.975-24.268-16.542-7.585-15.67 4.779-40.835 25.045-50.978 12.467-6.24 18.608-7.564 35.082-7.564 15.164 0 15.911.128 23.986 4.103 5.857 2.883 9.159 5.438 11.11 8.594 3.18 5.145 4.388 14.08 2.753 20.355l-1.121 4.302-39.3.073-39.299.073-1.099 5.999c-1.41 7.692 1.499 15.896 7.167 20.22 4.722 3.602 16.492 6.913 24.477 6.887 7.487-.024 19.296-2.876 28.186-6.808 3.946-1.745 7.357-3.173 7.58-3.173.222 0-.162 1.623-.854 3.608-1.354 3.885-5.282 5.837-19.237 9.56-10.564 2.817-30.687 3.463-40.208 1.29zm57.489-48.648c1.377-10.048-2.561-17.606-10.8-20.728-5.628-2.132-18.87-1.602-25.806 1.033-3.425 1.301-8.436 4.115-11.136 6.254-4.841 3.834-12.664 14.6-12.664 17.427 0 1.063 7.998 1.453 29.83 1.453h29.83l.746-5.44zM529.9 147.07c-5.62-2.1-9.136-8.446-8.09-14.6.41-2.405 3.803-15.354 7.542-28.773 3.739-13.42 6.798-24.81 6.798-25.312 0-.503-2.813-.914-6.25-.914-5.363 0-6.25-.346-6.25-2.438 0-2.089 1.023-2.49 7.156-2.812l7.156-.375 2.273-7.631c2.099-7.045 2.63-7.735 6.907-8.982 7.586-2.213 14.009-3.114 13.998-1.964-.005.592-1.126 4.733-2.49 9.202-1.365 4.469-2.485 8.547-2.49 9.062-.005.516 5.281.938 11.748.938 11.073 0 11.72.143 11.116 2.456-.574 2.193-1.927 2.495-12.595 2.813-11.53.343-11.984.466-12.89 3.48-3.641 12.114-12.334 43.975-13.05 47.834-1.923 10.353 4.622 15.79 17.026 14.145 4.988-.662 5.963-.484 5.4.984-.96 2.501-4.432 3.29-17.39 3.949-7.512.382-12.704.029-15.625-1.062zm65.337.333c-7.003-1.382-16.469-5.64-20.13-9.056-5.875-5.48-8.059-11.782-7.426-21.43 1.808-27.56 30.099-47.025 65.969-45.39 25.28 1.152 37.67 13.057 33.599 32.283l-1.21 5.714-39.137-.534-39.137-.533-.807 4.038c-1.522 7.61-.867 13.268 2.034 17.574 9.5 14.095 33.156 16.356 57.036 5.45 3.714-1.696 6.976-2.861 7.248-2.589.273.273.133 1.94-.31 3.706-.676 2.694-2.341 3.71-10.373 6.334-17.005 5.553-33.744 7.12-47.356 4.433zm55.417-46.875c.44-1.756.532-5.993.203-9.416-1.086-11.3-8.288-15.584-24.607-14.64-7.502.435-11.006 1.336-16.208 4.167-7.438 4.049-16.721 13.642-18.704 19.33l-1.308 3.752h59.822l.802-3.193zm150.656 46.755c-14.207-4.087-17.342-15.737-7.2-26.76 6.769-7.357 14.674-10.044 38.842-13.202 21.79-2.848 26.239-4.04 28.82-7.724 2.998-4.281 2.426-12.941-1.087-16.455-8.269-8.269-32.883-6.995-45.115 2.335-5.348 4.08-5.912 4.057-4.896-.194 1.281-5.364 2.58-6.32 13.435-9.885 8.61-2.829 12.462-3.356 25.166-3.446 16.872-.12 24.476 1.894 28.608 7.574 4.396 6.045 3.923 11.912-2.95 36.566-3.525 12.648-6.117 23.758-5.76 24.688.397 1.034 2.605 1.69 5.688 1.69 5.099 0 6.872 1.826 2.851 2.937-11.686 3.227-23.389 1.498-25.384-3.751-.692-1.82-1.876-2.897-2.758-2.508-20.873 9.205-35.795 11.72-48.26 8.135zm33.212-6.69c10.424-3.096 17.559-7.706 18.959-12.25 3.53-11.459 5.237-18.721 4.557-19.4-1.104-1.105-29.369 3.191-35.704 5.426-11.236 3.964-17.748 12.575-14.993 19.822 2.856 7.512 14.337 10.216 27.181 6.401zm-597.702-.31c-4.544-16.266-14.914-50.239-17.693-57.963-1.637-4.552-2.977-8.63-2.977-9.063 0-.432 4.385-.786 9.746-.786h9.745l1.473 8.588c1.273 7.424 13.483 50 14.691 51.227 1.385 1.406 14.484-12.639 34.219-36.69 5.641-6.875 12.224-14.89 14.629-17.813 4.07-4.945 4.799-5.312 10.56-5.312 3.402 0 6.187.377 6.187.837 0 .46-3.769 4.82-8.376 9.688-21.093 22.289-35.075 37.94-48.387 54.162l-8.461 10.313h-13.349l-2.007-7.188zm169.95 4.703c2.535-7.986 19.37-69.64 19.375-70.953.004-1.112 2.743-1.562 9.514-1.562 7.728 0 9.38.334 8.823 1.786-.377.983-1.067 3.822-1.534 6.31l-.848 4.522 5.793-3.91c10.541-7.114 18.43-9.234 34.507-9.274 12.551-.032 15.046.32 19.662 2.777 6.366 3.388 9.088 8.179 9.088 15.996 0 5.622-12.837 53.84-14.887 55.917-.542.55-4.636.83-9.098.625l-8.112-.374 6.046-21.25c9.1-31.987 9.235-39.448.792-43.95-6.295-3.357-22.276-3.027-30.35.626-12.757 5.772-15.916 11.071-24.711 41.454l-6.693 23.12-9.096.37c-8.716.353-9.061.26-8.27-2.23zm260.63 2.079c.001-.12 3.618-13.04 8.038-28.71 4.42-15.671 9.044-32.405 10.276-37.188l2.24-8.696h9.232c8.288 0 9.143.223 8.366 2.187-.475 1.204-1.192 4.142-1.592 6.531l-.728 4.343 3.646-2.367c2.006-1.302 5.702-3.717 8.213-5.366 2.512-1.65 7.242-3.805 10.511-4.789 5.766-1.735 16.798-2.472 16.798-1.123 0 .367-1.431 3.49-3.18 6.942-2.79 5.508-3.517 6.153-5.937 5.271-1.517-.552-5.95-.97-9.852-.93-8.242.088-17.314 4.84-21.721 11.38-2.287 3.393-15.607 47.285-15.573 51.314.01 1.06-2.809 1.503-9.362 1.469-5.156-.027-9.375-.148-9.374-.268zm62.5-1.275c0-1.29 16.016-59.713 19.501-71.132.552-1.808 2.168-2.187 9.333-2.187 4.766 0 8.663.422 8.659.937-.004.516-.607 3.1-1.341 5.743-.734 2.642-1.027 5.111-.652 5.486.375.376 2.525-.722 4.778-2.44 8.316-6.337 17.506-10.071 26.356-10.709l8.509-.613-3.471 7.076c-2.555 5.21-3.975 6.868-5.384 6.285-4.081-1.688-12.178-1.958-17.31-.577-5.753 1.55-14.338 8.457-17.048 13.718-.912 1.77-4.616 13.766-8.231 26.656l-6.572 23.438h-8.564c-6.338 0-8.563-.437-8.563-1.68z"/></svg>