<svg xmlns="http://www.w3.org/2000/svg" viewBox="0 0 296.81885 74.000008" height="74" width="296.819"><path d="M80.682 72.248c-6.854-3.494-7.513-5.459-8.071-24.047l-.5-16.66-34.966-11.054L2.179 9.433.907 5.038C.207 2.621-.168.446.073.204c.34-.34 66.565 15.776 85.74 20.865l3.702.982-2.452 3.614c-2.38 3.508-2.452 4.147-2.449 21.725.004 16.29.203 18.437 1.986 21.36 1.09 1.788 2.438 3.25 2.996 3.25.558 0 1.015.45 1.015 1 0 1.615-6.21 1.145-9.93-.752zm127.351-1.167c3.819-3.986 4.153-6.463 3.578-26.51-.476-16.585-.613-17.537-2.86-19.926l-2.36-2.509 3.86-1.027C219.996 18.514 295.597 0 296.446 0c.574 0 .476 1.882-.244 4.706l-1.2 4.706-7.446 2.355c-4.096 1.295-20.046 6.312-35.446 11.15l-28 8.795-.5 16.894c-.418 14.1-.8 17.335-2.31 19.56-2.066 3.043-8.236 5.834-12.898 5.834h-3.166zm-75.922-4.988c-4.4-1.093-6.975-2.68-9.799-6.036-8.435-10.025.08-25.057 14.195-25.057 10.398 0 17.947 7.826 16.86 17.477-1.11 9.834-10.994 16.166-21.256 13.616zM140.61 55c2.69-2.691 2.518-5.573-.517-8.608-5.489-5.488-12.47 1.898-7.927 8.385 1.944 2.775 5.79 2.877 8.444.223zm-48-3.95V36h12l.011 4.75.012 4.75 3.107-4.75 3.106-4.75h12.759l-5.027 7.044-5.026 7.045 5.029 7.275c2.766 4.001 5.029 7.581 5.029 7.955 0 .375-2.9.681-6.443.681h-6.442l-2.808-5.02-2.807-5.02-.5 4.77-.5 4.77-5.75.3-5.75.3zm62.666 14.283c-.366-.366-.666-7.116-.666-15V36h9.935c12.133 0 14.692.864 16.686 5.636 1.81 4.333 1.146 7.832-2.023 10.654l-2.303 2.052 3.102 4.995 3.103 4.995.277-14.166.278-14.166h20.945v8h-4.5c-3.834 0-4.5.296-4.5 2 0 1.667.666 2 4 2 4 0 4 0 4 4 0 3.99-.01 4-3.946 4h-3.945l-.305 4.75-.304 4.75-12.04.28-12.038.278-2.15-4.279-2.148-4.279-.062 4.25-.062 4.25h-5.334c-2.933 0-5.633-.3-6-.667zM170.611 46.5c0-1.833-.534-2.5-2-2.5-1.467 0-2 .667-2 2.5s.533 2.5 2 2.5c1.466 0 2-.667 2-2.5zM40.123 49.7c-21.276-6.76-29.071-9.647-29.303-10.852-.252-1.309 4.807-.021 24.987 6.358 34.498 10.907 35.117 11.125 35.57 12.544.22.688-.2 1.23-.933 1.205-.733-.025-14.378-4.19-30.32-9.256zm185.488 7.839c0-.836 1.605-1.91 3.75-2.509 2.062-.575 15.675-4.796 30.25-9.378 23.226-7.303 29.618-8.68 26.362-5.683C285.226 40.658 227.557 59 226.14 59c-.291 0-.53-.658-.53-1.461zm-186-13.571C15.872 36.417 9.033 33.872 8.759 32.488c-.27-1.373.073-1.617 1.5-1.067 1.019.392 14.902 4.806 30.852 9.81 15.95 5.002 29.427 9.472 29.95 9.932 3.66 3.225-4.718 1.308-31.45-7.195zm186 8.091c0-.518.344-1.154.765-1.414 1.837-1.135 61.693-19.52 62.13-19.083 1.482 1.482-5.231 4.116-31.437 12.332C241.096 48.902 227.484 53 226.819 53c-.665 0-1.208-.423-1.208-.941zM39.11 38.387C12.197 29.828 5.21 27.067 6.696 25.581c.47-.469 61.84 18.637 63.845 19.876 1.467.907 1.349 2.551-.18 2.507-.688-.02-14.75-4.33-31.25-9.577zm186.5 8.23c0-.86 3.296-2.417 8.75-4.13 50.296-15.8 55.348-17.237 55.044-15.657-.215 1.117-4.446 2.896-13.802 5.804-7.42 2.307-21.44 6.708-31.154 9.78-9.714 3.072-17.927 5.586-18.25 5.586-.324 0-.588-.622-.588-1.382zM38.123 32.634C14.523 25.15 6.053 22.058 5.82 20.846c-.257-1.332 3.146-.547 17.987 4.152 10.067 3.187 24.941 7.89 33.054 10.451 13.438 4.242 16.17 5.585 14 6.88-.413.246-15.145-4.117-32.738-9.696zm187.646 8.815c.349-1.782 4.283-3.146 48.643-16.867 13.868-4.29 17.24-5.034 16.993-3.752-.222 1.154-8.785 4.265-30.801 11.191-16.771 5.276-31.547 9.949-32.835 10.383-1.914.646-2.28.471-2-.955zM36.118 26.625C12.844 19.21 4.04 15.991 3.814 14.815c-.249-1.289 3.899-.297 20.493 4.9C63.692 32.054 70.954 34.53 71.365 35.764c.233.7-.383 1.198-1.421 1.146-1.008-.05-16.23-4.677-33.826-10.284zm189.493 9.048c0-.868 11.33-4.857 32.75-11.53 18.012-5.613 33.298-10.19 33.968-10.174 2.96.075-.27 2.835-5.01 4.28-2.865.875-17.603 5.45-32.752 10.17-15.15 4.72-27.862 8.581-28.25 8.581-.389 0-.706-.597-.706-1.327z" fill="#353535"/></svg>