<svg xmlns="http://www.w3.org/2000/svg" viewBox="0 0 513 142.99898" height="142.999" width="513"><path d="M0 142.392c0-.334 5.963-11.13 13.25-23.992L26.5 95.015l26.75-.008c14.713-.005 26.75-.31 26.75-.68 0-.674-16.385-29.947-22.646-40.459C55.509 50.771 54 47.895 54 47.478c0-.419 4.103-8.01 9.117-16.87 5.015-8.86 10.955-19.372 13.2-23.359C78.56 3.261 80.645-.001 80.948 0c.303 0 1.863 2.363 3.466 5.25C86.02 8.137 92.01 18.744 97.73 28.822l10.4 18.322-12.815 22.644c-7.048 12.455-12.96 23.222-13.138 23.928-.257 1.02 5.1 1.283 26.127 1.283 19.965 0 26.695.307 27.444 1.25 1.214 1.529 26.252 45.73 26.252 46.344 0 .24-12.209.318-27.13.172l-27.13-.266-9.398-16.5c-5.17-9.075-11.055-19.538-13.08-23.25-2.026-3.713-3.95-6.75-4.276-6.75-.326 0-6.582 10.575-13.901 23.5l-13.308 23.5H26.888C12.1 142.999 0 142.726 0 142.392zm182-22.893v-23.5h30.762l-.144 3.75-.145 3.75-11.236.283-11.237.282V114h21v8h-21.095l.297 6.25.298 6.25 11.25-.022 11.25-.023V143h-31v-23.5zm38.693 22.86c-.381-.382-.693-10.968-.693-23.527V96h9v19c0 11.917.373 19.047 1 19.125.55.069 5.162.181 10.25.25l9.25.125v8l-14.057.276c-7.731.152-14.369-.035-14.75-.416zM256 119.499v-23.5h30v8h-22v10h21v8h-21v6c0 3.3.45 6.056 1 6.125.55.069 5.612.181 11.25.25l10.25.125.307 4.25.308 4.25H256v-23.5zm49 22.831c-7.52-3.09-12.083-11.44-12.117-22.177-.03-9.591 1.754-14.83 6.759-19.842 8.637-8.65 22.656-6.565 27.422 4.079 2.01 4.49 1.758 4.898-3.677 5.92-2.61.49-3.29.196-4.205-1.81-2.62-5.752-9.625-6.852-13.996-2.199-4.202 4.473-5.016 17.08-1.546 23.918 2.814 5.546 8.906 6.388 13.437 1.857 1.608-1.608 2.923-3.633 2.923-4.5s.608-1.577 1.35-1.577c2.03 0 7.654 2.102 7.622 2.848-.09 2.079-4.963 9.802-7.272 11.527-2.76 2.06-13.41 3.307-16.7 1.956zm40.714.05c-.393-.393-.714-9.19-.714-19.548V104h-12v-8h33v8h-11.957l-.271 19.25-.272 19.25-3.536.298c-1.944.163-3.857-.024-4.25-.417zm26 0c-.393-.393-.714-10.99-.714-23.548V96h12.55c9.261 0 13.318.397 15.483 1.517 8.358 4.322 7.907 19.52-.686 23.111l-3.52 1.471 2.648 2.649c2.437 2.437 8.497 12.365 10.072 16.502.573 1.504.042 1.75-3.785 1.75-5.15 0-5.605-.42-11.616-10.733-4.27-7.327-6.373-9.267-10.044-9.267-1.881 0-2.05.713-2.316 9.75l-.286 9.75-3.536.298c-1.944.163-3.857-.024-4.25-.417zm23.086-28.581c.66-.66 1.2-2.595 1.2-4.3 0-4.566-1.563-5.5-9.2-5.5H380v11h6.8c3.956 0 7.302-.502 8-1.2zm18.2 5.7v-23.5h8v47h-8v-23.5zm25.18 21.818c-6.62-3.261-10.404-11.148-10.4-21.67.004-8.585 1.74-14.112 5.872-18.685 5.46-6.044 13.297-7.531 21.077-4 4.227 1.92 8.26 6.915 8.267 10.24.004 1.886-7.246 4.519-7.813 2.837-.832-2.469-4.423-5.884-6.82-6.485-8.518-2.138-14.132 8.608-11.392 21.806 1.323 6.372 4.455 9.639 9.24 9.639 3.228 0 8.789-4.698 8.789-7.423 0-1.849 1.536-1.983 5.774-.506 2.925 1.02 3.02 1.224 1.996 4.25-2.66 7.856-8.068 11.695-16.421 11.656-2.667-.012-6.343-.759-8.17-1.659zM293.685 84.95c-2.098-.362-5.023-1.55-6.5-2.643-3.04-2.247-6.065-7.699-6.137-11.058-.042-1.96.459-2.25 3.885-2.25 2.927 0 4.08.466 4.511 1.824 1.251 3.941 4.486 6.176 8.94 6.176 5.198 0 7.924-2.44 7.441-6.662-.299-2.607-1.007-3.058-8.72-5.55-9.242-2.986-12.484-5.377-14.155-10.439-3.353-10.16 5.73-18.543 18.228-16.825 5.857.806 10.22 4.122 11.826 8.99 1.464 4.435.728 5.486-3.844 5.486-3.198 0-3.877-.413-4.829-2.934-.83-2.2-1.95-3.092-4.48-3.566-4.812-.903-8.851.855-8.851 3.853 0 3.134 1.276 4.055 8.487 6.123 8.298 2.38 11.287 4.106 13.553 7.823 3.848 6.31 1.5 16.326-4.653 19.858-3.432 1.97-9.427 2.702-14.702 1.794zm140.815.028c-5.491-.784-9.028-3.372-11.45-8.378-3.172-6.55-2.832-7.601 2.45-7.601 3.392 0 4.5.38 4.5 1.545 0 .85 1.105 2.65 2.455 4 4.687 4.688 14.545 2.3 14.545-3.522 0-2.424-3.059-4.48-8.994-6.046-11.534-3.043-15.59-7.543-14.744-16.355.614-6.386 4.566-10.136 11.722-11.12C445.07 36.114 454 41.617 454 49.221c0 2.577-.291 2.778-4.025 2.778-3.38 0-4.178-.403-4.982-2.518-1.647-4.332-8.166-5.782-12.01-2.67-3.996 3.237-1.979 5.692 7.185 8.744 12.682 4.223 16.673 9.402 14.588 18.93-1.787 8.169-9.297 12.06-20.256 10.493zM182 61.5v-23.5H194.597l3.343 14.25c1.84 7.837 3.633 14.581 3.988 14.986.354.404 2.202-6.008 4.108-14.25l3.464-14.986H223.037l-.269 23.25-.268 23.25h-8V67.83c0-9.167-.178-16.49-.395-16.271-.218.218-2.059 7.72-4.092 16.669l-3.696 16.271-4.074.303c-4.785.357-4 2.018-8.648-18.303l-3.43-15-.083 16.75-.082 16.75h-8v-23.5zm49 0v-23.5h8v47h-8v-23.5zm25.667 22.833c-.367-.366-.667-9.141-.667-19.5V46h-12v-8h34v8h-13v39h-3.833c-2.109 0-4.134-.3-4.5-.667zm70.892-2.415c-1.97-1.73-3.958-4.693-4.53-6.75-.56-2.018-1.02-11.206-1.023-20.418L322 37.999h9V55.31c0 16.04.15 17.473 2.039 19.5 2.706 2.905 9.143 3.007 11.96.189 1.848-1.848 2-3.333 2-19.5v-17.5h9.241l-.409 18.75c-.347 15.962-.683 19.213-2.255 21.864C350.66 83.53 347.222 85 338.63 85c-7.02 0-7.812-.22-11.071-3.082zM365 61.597V38h12.096c13.642 0 16.756 1.061 19.388 6.607 2.125 4.478 1.894 7.557-.873 11.634l-2.389 3.52 3.14 3.139c2.651 2.651 3.138 3.888 3.138 7.968 0 5.57-1.739 9.38-5.415 11.866-2.056 1.39-5.296 1.82-15.835 2.105l-13.25.357V61.597zm24.72 12.771c3.183-4.353.434-9.285-5.291-9.494a2771.56 2771.56 0 0 0-7.179-.25l-3.75-.125-.302 6.398-.301 6.398 7.77-.587c5.772-.437 8.1-1.039 9.052-2.34zM386 55.711a5.113 5.113 0 0 0 2.822-4.046c.525-4.54-1.252-5.666-8.944-5.666H373v4.833c0 2.659.3 5.134.667 5.5 1.136 1.136 9.7.705 12.333-.62zm21 5.788v-23.5h8v47h-8v-23.5zm55.667 22.833c-.367-.366-.667-10.941-.667-23.5V38h9v18h17v-18h8v47h-7.93l-.285-10.25-.285-10.25h-16l-.285 10.25-.285 10.25h-3.798c-2.09 0-4.099-.3-4.465-.667zM505 61.5v-23.5h8v47h-8v-23.5z"/></svg>