<svg xmlns="http://www.w3.org/2000/svg" viewBox="0 0 274.64359 279.35519" height="279.355" width="274.644"><path d="M240.707 275.253c-2.053-2.438-13.078-14.293-24.5-26.344-11.423-12.051-27.06-28.634-34.751-36.851-22.96-24.532-29.838-31.474-33.296-33.612-6.019-3.72-15.067-5.811-25.221-5.83-11.715-.021-17.048-2.214-24.648-10.133-5.581-5.817-14.578-18.767-16.903-24.331-2.772-6.634-1.463-11.534 3.08-11.534 1.172 0 7.27 3.38 13.55 7.511 6.282 4.13 12.226 7.767 13.21 8.08 2.012.64 8.992-2.657 12.56-5.933 3.657-3.356 9.194-14.925 10.73-22.416 1.082-5.28-4.229-10.47-21.963-21.462-6.004-3.722-7.616-5.22-7.616-7.081 0-4.312 3.651-5.199 21.406-5.199h16.094l7.294 3.898c7.615 4.068 13.648 9.931 16.853 16.377 1.468 2.953 1.811 5.695 1.652 13.225-.111 5.287.45 12.663 1.266 16.631 2.346 11.412 4.243 14.32 22.44 34.416 4.754 5.249 49.537 53.338 66.335 71.232 16.669 17.755 16.835 17.976 16.176 21.58-2.023 11.07-12.484 20.107-25.016 21.609-4.95.593-5.038.555-8.732-3.833zM115.939 260.94c-7.323-1.188-10-5.17-10-14.873 0-6.176-.232-6.879-3.25-9.865-1.988-1.966-6.94-4.685-12.75-7-12.746-5.077-16.01-4.758-23.467 2.296-4.544 4.297-6.02 5.12-9.184 5.12-3.513 0-4.72-.95-17.7-13.931l-13.931-13.93.546-4.077c.415-3.09 1.78-5.425 5.641-9.65 6.4-7.003 6.49-9.024.988-22.13-5.33-12.697-7.95-15.263-15.66-15.339-7.392-.073-12.023-1.739-14.64-5.267C.662 149.773.4 147.81.078 133.885c-.231-10.008.056-16.977.805-19.474 1.667-5.565 5.738-7.784 14.29-7.789 9.112-.005 11.333-2.105 16.834-15.924 5.324-13.37 5.111-15.914-1.974-23.667-4.362-4.772-5.094-6.154-5.094-9.606 0-3.832.663-4.705 13.42-17.646 12.728-12.914 13.622-13.615 17.36-13.615 3.357 0 4.79.776 9.661 5.227 5.082 4.645 6.21 5.227 10.12 5.227 2.883 0 7.882-1.438 14.5-4.17 12.956-5.352 14.588-7.305 15.105-18.076.325-6.768.705-8.08 3.003-10.378 2.284-2.283 3.865-2.75 11.98-3.533 10.283-.992 24.778-.313 29.148 1.365 3.704 1.422 5.703 5.55 5.703 11.775 0 5.664 1.75 10.65 4.638 13.22 2.638 2.346 21.48 9.797 24.776 9.797 3.708 0 7.387-2.114 12.039-6.917 3.316-3.425 4.59-4.083 7.917-4.083 3.746 0 4.7.73 17.339 13.244 7.356 7.285 13.63 14.26 13.941 15.5.956 3.808-.484 7.052-5.673 12.781-6.366 7.03-6.438 9.46-.693 23.409 5.36 13.013 6.905 14.329 17.77 15.127 6.393.47 8.41 1.028 10.37 2.868 3.395 3.19 5.038 13.575 4.201 26.571-.83 12.894-1.324 14.926-4.374 17.976-2.191 2.191-3.398 2.524-9.153 2.524-10.702 0-12.674 1.57-18.336 14.6-2.606 5.995-4.744 12.441-4.75 14.325l-.012 3.424-2.62-2.424c-1.44-1.334-7.987-8.375-14.55-15.649l-11.93-13.223 2.259-7.277c1.837-5.914 2.25-9.521 2.205-19.276-.05-10.74-.376-12.915-3.115-20.712-4.006-11.409-8.948-19.375-17.037-27.464-17.202-17.202-41-24.694-62.9-19.802-27.592 6.163-48.472 26.426-54.858 53.236-2.237 9.392-1.536 27.967 1.369 36.282 11.939 34.172 44.876 54.143 79.177 48.005 3.575-.64 7.917-1.66 9.65-2.268 3.074-1.08 3.29-.951 8.988 5.309 3.21 3.528 9.182 9.9 13.27 14.161 4.087 4.26 7.243 7.885 7.012 8.055-.231.17-3.57 1.558-7.42 3.086-16.301 6.466-18.5 8.808-18.5 19.705 0 11.935-3.644 13.896-25.5 13.728-6.6-.051-13.125-.275-14.5-.498z" fill="#545454"/></svg>