<svg xmlns="http://www.w3.org/2000/svg" viewBox="0 0 280.93314 279.12625" height="279.126" width="280.933"><path d="M32 264.563V250h38.241l-.725 13.75c-.4 7.563-.94 13.975-1.202 14.25-.261.275-8.54.64-18.395.813L32 279.126v-14.563zm178-.063V250h37v29h-37v-14.5zM7.786 244.287C4.433 243.777 0 238.701 0 235.374c0-4 2.688-8.07 6.119-9.266C8.383 225.32 46.836 225 139.68 225c139.71 0 135.565-.145 138.239 4.85 1.923 3.593 1.277 8.762-1.509 12.073L273.822 245l-131.66-.15c-72.415-.082-132.883-.336-134.376-.563zm12.235-25.381c.012-.773 7.837-27.056 17.39-58.406l17.368-57h169.564l17.498 57.247c9.623 31.486 17.23 57.515 16.904 57.841-.326.327-54.177.848-119.67 1.159-101.906.483-119.072.362-119.054-.841zm169.598-14.192c.775-.775-.27-5.062-11.297-46.353l-8.583-32.138-29.412-.736c-16.177-.404-29.699-.449-30.049-.099-.71.71-21.272 76.41-21.276 78.326 0 .842 2.983 1.334 9.748 1.605 15.216.612 90.152.113 90.87-.605zm50.416-76.568c-1.442-6.013-2.88-3.024 17.796-37C263.974 81.051 269 72.475 269 72.086c0-.387-11.472-5.128-25.493-10.535-14.022-5.406-25.948-10.378-26.504-11.047-1.161-1.4-.213-7.504 1.166-7.504 2.35 0 59.53 22.316 62.12 24.244 1.526 1.135.815 2.697-7.395 16.256-14.478 23.91-27.646 44.972-29.706 47.516l-1.901 2.348-1.252-5.218zM181 60.962a52915.376 52915.376 0 0 1-28.479-11.224c-1.348-.538.802-3.67 15.84-23.083l13.05-16.845 3.544.58c3.937.643 27.029 9.285 28.443 10.644.887.852-1.94 46.607-3.06 49.526-.303.792-.841 1.394-1.195 1.337-.354-.056-13.018-4.977-28.143-10.935zm18-50.25c-5.32-2.01-8.5-3.758-8.5-4.672 0-2.104 6.296-6.04 9.663-6.04 4.137 0 9.743 5.471 10.503 10.25.756 4.76-.19 4.797-11.666.461z" fill="#545454"/></svg>