<svg xmlns="http://www.w3.org/2000/svg" viewBox="0 0 1062.5428 218.00787" height="218.008" width="1062.543"><path d="M8.904 216.722c-1.153-.668-3.628-2.977-5.5-5.131L0 207.674V11.104L3.92 7.09C11.353-.521 3.495.008 109.168.008c90.35 0 95.03.088 98.349 1.848 4.678 2.483 10.618 10.46 11.392 15.302.815 5.095.816 183.026.001 185.475-1.757 5.283-3.754 8.454-7.398 11.745l-4.017 3.63-98.247-.036c-75.198-.027-98.739-.32-100.343-1.25zm192.923-8.817c1.331-.607 3.377-2.806 4.547-4.886 2.124-3.78 2.126-3.861 2.126-93.463 0-65.973-.306-90.257-1.157-91.864-.636-1.201-2.099-3.011-3.25-4.022-5.42-4.76-3.41-4.662-95.066-4.662-61.823 0-87.19.322-89.628 1.138-1.87.627-4.45 2.09-5.736 3.25C8.568 18 8.5 18.743 8.505 69.88l.005 47.628 2.399-3 2.399-3 27.503-.5 27.504-.5-9.908-10.25C49.844 91.396 48.5 89.548 48.5 86.63c0-4.248 2.148-6.077 7.138-6.077 3.699 0 4.729.842 21.386 17.478 9.624 9.612 17.756 18.286 18.07 19.276.87 2.737-1.212 5.246-19.21 23.152-15.238 15.161-16.93 16.549-20.18 16.549-4.357 0-7.204-2.402-7.204-6.078 0-3.01 1.205-4.637 11.79-15.913 3.867-4.12 6.82-7.832 6.561-8.25-.258-.417-11.896-.76-25.863-.76-26.6 0-29.62-.423-31.135-4.371-1.235-3.218-1.653 73.156-.423 77.407.562 1.945 2.436 4.982 4.165 6.75l3.142 3.215h91.335c64.445 0 92.047-.325 93.755-1.103zM98.758 188.679c-19.444-19.52-20.86-21.736-16.035-25.114 4.484-3.142 6.522-2.103 17.926 9.135 5.968 5.881 10.864 10.044 10.88 9.25.015-.793.021-12.792.013-26.664-.017-29.816.512-32.225 7.086-32.263 5.133-.03 5.332 1.046 5.872 31.608l.5 28.32 10.133-10.015c7.85-7.76 10.91-10.142 13.576-10.575 2.455-.398 3.923-.078 5.117 1.116 3.063 3.063 2.033 6.297-4.076 12.801-10.534 11.215-30.67 30.73-31.71 30.73-.563 0-9.24-8.248-19.282-18.329zm-24.591-40.338c-1.373-1.373-.571-3.322 2.583-6.278l3.25-3.046 13.275-.005 13.275-.005.975 2.565c1.303 3.429 1.243 4.024-.596 5.864-1.292 1.292-4.293 1.572-16.834 1.572-8.394 0-15.562-.3-15.928-.667zm55.313-1.37c-1.168-2.182-.424-5.993 1.405-7.198.613-.404 3.028-.741 5.365-.75l4.25-.015v-13.965c0-12.783.164-14.052 1.934-15 2.748-1.47 3.797-1.304 6.066.965 1.837 1.837 2 3.333 2 18.345 0 20.01.213 19.655-11.794 19.655-7.162 0-8.266-.244-9.226-2.038zm35.243-11.52c-4.404-3.084-3.028-6.077 8.254-17.943 5.751-6.05 10.472-11.338 10.49-11.75.018-.413-12.702-.75-28.267-.75-20.678 0-28.623-.323-29.5-1.2-1.712-1.712-1.484-7.374.371-9.229 1.355-1.354 5.464-1.571 29.72-1.571h28.146l-5.534-5.75C167.595 76.028 162.5 69.82 162.5 67.882c0-2.381 4.277-6.874 6.544-6.874.9 0 9.695 7.952 19.546 17.671 14.3 14.11 17.91 18.207 17.91 20.333 0 2.1-3.462 6.158-16.421 19.251-19.686 19.889-20.608 20.514-25.356 17.188zM96.327 95.333c-3.268-.864-3.886-6.105-3.792-32.159.05-13.955-.087-25.552-.306-25.77-.219-.22-5.085 4.1-10.813 9.598C73.14 54.945 70.406 57 68.11 57.003c-3.375.005-5.533-2.388-5.578-6.188-.047-3.963 33.012-37.807 36.93-37.807 2.146 0 6.097 3.468 19.859 17.433 15.385 15.613 17.179 17.785 17.179 20.8 0 4.114-1.503 5.767-5.244 5.767-3.01 0-5.4-1.912-17.893-14.312l-6.863-6.812v55.215l-2.455 2.454c-2.35 2.352-4.064 2.747-7.718 1.78zm-23.172-3.747c-3.618-3.314-3.655-3.43-3.655-11.272 0-10.503.542-11.108 10.296-11.496 7.294-.29 7.831-.17 8.339 1.86 1.139 4.56.141 5.811-4.894 6.135l-4.741.304v8.387c0 4.612-.38 8.62-.845 8.908-.464.287-2.49-.984-4.5-2.826zm68.06-3.197c-.394-.393-.715-3.102-.715-6.021V77.06l-14.75-.276-14.75-.277v-7h38v19l-3.536.297c-1.944.164-3.857-.023-4.25-.416zm-67.996 47.37c8.955-8.937 16.281-16.604 16.281-17.037 0-1.188-32.766-33.714-33.963-33.714-3.074 0 .207 4.794 10.951 16 6.592 6.875 11.873 13.175 11.735 14-.215 1.29-4.7 1.537-32.057 1.764-29.574.246-31.784.386-31.473 2 .305 1.591 2.953 1.778 31.737 2.236 19.623.312 31.53.875 31.738 1.501.183.55-3.605 5.09-8.418 10.088-4.812 4.997-10.453 10.977-12.534 13.289-3.566 3.96-4.074 6.122-1.438 6.122.638 0 8.487-7.312 17.441-16.25zM320.5 177.522c-19.03-2.689-27.755-9.737-32.908-26.585-2.92-9.546 1.18-22.168 9.825-30.255 4.894-4.576 16.232-11.674 18.65-11.674.803 0 2.242-.404 3.197-.897 1.501-.776 9.3-3.18 19.736-6.083 1.65-.459 5.475-1.38 8.5-2.046 10.807-2.38 24.296-7.098 27.685-9.683 1.896-1.446 4.317-4.335 5.38-6.42 5.293-10.374-.897-20.032-15.294-23.861-8.347-2.22-36.795.195-46.271 3.929-6.415 2.527-12.56 4.142-13.515 3.551-1.132-.699-.815-6.052.735-12.426 1.01-4.15 1.75-4.413 23.28-8.262 9.108-1.629 35.733-2.121 43.5-.804 18.649 3.16 28.302 9.606 32.001 21.366 1.88 5.975 1.897 3.774-.42 52.636-2.14 45.12-2.246 46.325-4.304 49.265-3.072 4.39-6.952 5.864-14.564 5.53l-6.713-.295.107-6.5c.174-10.62 1.339-32.527 2.526-47.5.61-7.7.943-15.097.738-16.437-.325-2.136-.556-2.26-1.871-1-2.218 2.125-9.529 5.937-11.386 5.937-.888 0-1.614.45-1.614 1s-1.323 1-2.941 1c-1.618 0-3.22.45-3.559 1-.34.55-1.572 1-2.738 1-2.19 0-3.664.387-14.893 3.916-3.647 1.146-7.148 2.084-7.779 2.084-.63 0-4.469 1.576-8.528 3.503-9.556 4.534-16.017 11.38-17.014 18.024-1.335 8.9 1.873 15.29 10.092 20.108 3.878 2.273 6.037 2.746 14.216 3.12 8.471.388 13.145-.03 26.894-2.411 3.224-.559 3.25-.531 3.25 3.487 0 2.228-.45 4.329-1 4.669-.55.34-1 1.661-1 2.936 0 3.115-1.639 4.162-7 4.472-2.475.143-6.699.672-9.386 1.176-6.17 1.156-14.744.966-25.614-.57zm165.5.24c-8.375-1.131-18.349-4.005-24.439-7.041-5.985-2.984-14.416-10.843-18.92-17.638-4.955-7.476-5.757-9.284-8.118-18.307-2.31-8.831-2.813-29.331-.919-37.504 1.325-5.715 6.787-21.174 8.015-22.688.481-.592 2.9-3.836 5.374-7.209 2.475-3.373 5.564-6.83 6.863-7.681 1.3-.852 2.989-2.156 3.754-2.898 3.738-3.63 12.22-7.348 23.689-10.385 6.182-1.637 27.898-1.903 32.88-.403 1.827.55 5.008 1.488 7.071 2.084 16.709 4.83 26.97 15.906 31.755 34.274 1.754 6.734 1.983 21.82.378 24.958-2.931 5.731-1.436 5.565-50.755 5.644-24.955.04-45.814.346-46.353.68-1.454.898.01 12.848 2.433 19.86 5.798 16.775 16.37 25.048 36.48 28.547 6.074 1.057 8.79 1.003 17.5-.343 12.646-1.953 18.058-3.11 23.772-5.078 2.423-.835 4.773-1.29 5.223-1.013 1.198.74.964 6.17-.513 11.887-1.496 5.794-1.196 5.669-22.477 9.385-12.706 2.22-21.05 2.44-32.693.869zm46.485-87.004c-.013-3.683-.74-6.7-3.613-15-.333-.963-1.003-1.75-1.489-1.75-.485 0-.883-.603-.883-1.34 0-2.016-5.866-6.921-11.5-9.616-4.134-1.977-6.645-2.404-14.5-2.467-11.365-.092-18.437 1.871-26.149 7.258-8.116 5.67-15.851 17.943-15.851 25.15 0 1.984.57 2.015 37 2.015h37l-.015-4.25zM714 177.502c-5.5-.755-11.575-1.792-13.5-2.305-4.505-1.2-12.354-4.355-13-5.225-.275-.37-1.727-1.308-3.227-2.085-3.167-1.639-11.8-11.486-15.42-17.592-1.375-2.316-3.89-7.716-5.59-12-2.98-7.512-3.092-8.352-3.176-23.787-.09-16.644.22-18.56 5.112-31.5 3.829-10.129 7.83-15.816 16.903-24.027C692.47 49.6 706.73 45.008 725.5 45.008c25.601 0 41.758 8.106 50.126 25.15 4.405 8.97 4.737 10.312 5.325 21.518.652 12.422-.464 17.097-4.549 19.052-1.939.928-13.888 1.273-47.098 1.359-24.476.063-45.087.478-45.804.921-2.043 1.263.199 18.13 3.359 25.277 3.992 9.026 11.244 15.955 20.454 19.543 16.182 6.305 26.267 6.323 51.687.095 2.75-.674 5.45-1.52 6-1.882 1.525-1 3.485-.675 4.348.72.563.912-.626 11.368-1.808 15.899-.162.62-6.881 2.348-9.13 2.348-1.536 0-3.028.382-3.317.85-.478.774-6.374 1.395-24.593 2.59-3.575.235-11-.191-16.5-.946zm45.075-89.432C757.9 76.154 752.3 67.749 742.5 63.192c-4.767-2.216-6.912-2.565-16.099-2.62-5.829-.035-11.679.42-13 1.013-16.89 7.573-22.8 13.802-27.31 28.786l-1.395 4.637h75.062l-.683-6.938zM855 177.796c-16.227-2.492-25.38-6.668-34.578-15.775-9.507-9.414-15.114-22.452-16.363-38.05-1.217-15.193 4.147-40.678 11.104-52.757 3.983-6.917 13.13-15.41 20.337-18.883 12.118-5.84 15.457-6.501 35.5-7.031 12.452-.33 17.22-.079 21.5 1.13 3.025.854 7.408 2.025 9.74 2.601 4.71 1.165 4.837 1.432 5.605 11.727.465 6.241.462 6.25-2.24 6.25-1.488 0-3.132-.422-3.655-.937-1.527-1.506-20.713-5.063-27.308-5.063-17.769 0-33.474 8.719-40.883 22.697-3.743 7.062-4.888 11.415-5.71 21.715-.347 4.35-.773 8.176-.947 8.5-.746 1.386 2.357 20.298 3.807 23.206.875 1.754 1.591 3.824 1.591 4.6 0 .777 2.397 3.809 5.326 6.738 5.338 5.338 12.186 9.125 20.69 11.442 5.39 1.469 25.053.949 32.484-.859 2.75-.668 6.8-1.288 9-1.377 3.692-.15 3.984.03 3.798 2.338-.198 2.452-.985 7.432-1.836 11.608-.631 3.103-6.995 4.964-21.462 6.275-13.861 1.257-16.769 1.246-25.5-.095zm126-.254c-9.796-1.625-21.29-5.31-23.5-7.534-.275-.277-1.81-1.178-3.412-2.002-3.277-1.686-14.588-12.48-14.588-13.92 0-.514-.565-1.53-1.256-2.257-1.276-1.343-4.997-8.684-6.244-12.321-4.292-12.512-4.971-33.047-1.52-45.926 3.697-13.796 8.816-22.789 17.79-31.254 7.73-7.293 13.653-10.244 32.801-16.342 1.689-.538 8.785-.978 15.768-.978 15.669 0 24.15 1.862 37.026 8.131 2.676 1.303 7.093 4.35 9.816 6.77 5.124 4.557 12.819 14.967 12.819 17.344 0 .745.372 1.782.826 2.305.455.522 1.407 2.975 2.117 5.45s1.688 5.805 2.174 7.4c2.082 6.832.363 37.058-2.278 40.05-.462.522-.839 1.614-.839 2.425 0 .811-1.893 5.334-4.206 10.05-8.549 17.43-24.878 29.175-44.794 32.221-10.32 1.578-20.491 1.717-28.5.388zm30.496-18.84c10.649-3.597 20.211-14.4 24.075-27.194.665-2.2 1.626-5.18 2.137-6.622 1.587-4.48 1.269-27.743-.458-33.446-2.626-8.676-5.616-14.223-10.013-18.576-7.902-7.824-20.043-11.544-34.237-10.49-16.263 1.207-26.986 7.756-34.447 21.04-1.13 2.01-2.053 4.451-2.053 5.424 0 .974-.358 2.197-.796 2.72-3.438 4.104-4.984 31.265-2.274 39.96 4.627 14.844 12.643 23.397 26.57 28.351 7.45 2.65 21.771 2.12 31.496-1.166zm-435.163 15.324c-.341-1.007.077-13.522 2.094-62.518.634-15.4 1.26-35.425 1.392-44.5.132-9.075.59-17.063 1.02-17.75.537-.863 3.828-1.25 10.613-1.25 11.419 0 11.032-.36 11.08 10.332.029 6.597.151 7.009 1.531 5.168 7.398-9.865 11.842-13.272 21.402-16.41 4.478-1.47 8.939-2.09 15.045-2.09 11.216 0 12.212.896 11.788 10.607-.364 8.367-1.995 9.748-9.598 8.127-4.917-1.049-15.663.413-19.625 2.67-9.286 5.29-16.443 14.878-19.476 26.096-2.08 7.69-3.1 19.784-3.147 37.322-.05 18.4-1.69 35.001-3.854 39.013-.693 1.284-3.136 3.187-5.429 4.228-4.402 1.999-14.266 2.634-14.836.955z" fill="#4b4b4b"/></svg>