<svg xmlns="http://www.w3.org/2000/svg" viewBox="0 0 143.325 35.04086" height="35.041" width="143.325"><path d="M36 34.993l-4.05-.211c-17.007-.885-27.743-3.857-30.876-8.55C.299 25.073 0 24.088 0 22.697 0 16.915 7.389 11.859 21.685 7.86c4.481-1.254 11.024-2.666 16.04-3.462 1.327-.21 1.906-.39 2.959-.914.72-.358 1.417-.816 1.549-1.018.132-.201.86-.826 1.616-1.387L45.225.057l1.35-.043c1.275-.042 1.404-.016 2.325.454l.975.497-.015.935c-.008.52-.12 1.15-.252 1.421-.715 1.46-1.756 3.845-1.85 4.236-.22.917-.652 1.674-1.058 1.86-.325.148-.365.213-.193.32.186.115.178.207-.058.645-.15.28-.258.637-.238.793.02.155-.042.472-.138.705-.095.232-.173.553-.173.712 0 .16-.063.29-.14.29-.077 0-.184.14-.238.311-.062.195-.182.28-.32.226-.217-.083-1.102.286-1.102.46 0 .049.148.05.33.002.646-.169.726.132.333 1.257-.585 1.673-.424 2.008.37.77.256-.399.669-.906.916-1.126.248-.221.451-.464.451-.54 0-.077.135-.182.3-.235.165-.052.3-.192.3-.31 0-.5 4.9-5.768 7.425-7.984l1.125-.989c1.105-.972 2.339-1.301 3.73-.995 1.431.314 1.67.442 1.67.892 0 .22-.077.478-.171.572-.094.094-.223.502-.287.906-.145.918-1.933 4.684-2.625 5.529-.285.346-.517.703-.517.793 0 .09-.135.414-.3.722-.165.308-.3.669-.3.801 0 .133-.135.364-.3.513-.324.294-.401.895-.136 1.06.182.112.886-.213.886-.41 0-.069-.105-.125-.234-.125-.128 0-.19-.07-.136-.157.066-.108.16-.104.302.013.241.2.865-.225 1.822-1.244.67-.713 1.799-1.741 2.716-2.474.376-.3.628-.637.658-.876.035-.29.273-.528.933-.937.839-.52.947-.547 2.025-.513 1.565.048 2.66.403 2.786.904.103.413-.556 1.929-1.172 2.696-.352.437-.469.67-1.003 1.988-.184.454-.377.86-.428.9-.144.116-1.485 2.876-1.603 3.3-.057.207-.512 1.185-1.01 2.175-1.238 2.461-1.39 2.913-1.214 3.613.075.3.166.37.407.306.3-.078.701.125.701.356 0 .214-1.725.263-2.625.075-1.073-.224-1.801-.619-2.017-1.092-.197-.432-.202-.828-.014-1.016.176-.177 1.956-4.102 1.956-4.315 0-.084.105-.269.233-.41.128-.142.244-.396.256-.565.013-.17.131-.336.263-.37.15-.04.361-.483.569-1.197.39-1.345.387-1.31.11-1.31-.122 0-.3.152-.396.338-.097.186-.57.742-1.05 1.237-2.642 2.721-3.202 3.32-3.731 3.989-.32.404-.886.988-1.258 1.298-.373.31-.8.8-.95 1.088-.15.29-.834 1.106-1.521 1.815-.687.709-1.328 1.445-1.425 1.636-.096.19-.544.546-.995.789-.653.351-.875.408-1.086.276-.146-.091-.438-.166-.65-.166-.494 0-1.509-.582-1.728-.992-.144-.27-.091-.427.351-1.05.287-.403.634-.935.773-1.183.138-.247.41-.713.604-1.035.195-.323.319-.677.276-.788-.045-.117.024-.202.164-.202.133 0 .241-.093.241-.206 0-.114.097-.288.216-.386.119-.099.176-.284.127-.412-.052-.135.016-.292.16-.373.138-.077.426-.49.64-.919.215-.428.541-.981.726-1.229.184-.247.497-.815.695-1.263.199-.447 1.154-2.4 2.123-4.34.97-1.941 1.763-3.613 1.763-3.715 0-.103-.15-.234-.334-.292-.263-.084-.398-.014-.637.327-.167.238-.742.875-1.279 1.415a23.762 23.762 0 0 0-1.622 1.82c-.355.462-.845 1.017-1.087 1.233-.243.216-.441.485-.441.598 0 .113-.11.297-.245.41-.135.111-.413.474-.616.805a7.071 7.071 0 0 1-.843 1.074c-.259.26-.69.765-.956 1.125l-.975 1.31c-.27.36-.707.967-.972 1.35-.685.985-1.532 2.167-2.143 2.989-.635.854-.855 1.199-1.047 1.642-.08.186-.215.337-.3.337-.084 0-.153.094-.153.21 0 .114-.204.468-.454.787-.837 1.068-1.474 1.977-1.721 2.454-.377.728-1.568 1.8-2.001 1.8-.644 0-1.979-.496-2.36-.877-.471-.472-.458-.705.086-1.524.247-.37.454-.81.46-.975.007-.165.141-.502.3-.75.157-.247.401-.669.541-.937s.302-.488.36-.488c.059 0 .151-.177.205-.394.055-.217.366-.958.692-1.647.325-.689.592-1.365.592-1.503 0-.138.179-.629.398-1.09l.859-1.816c.253-.536.538-1.042.633-1.125.094-.082.209-.285.254-.45.095-.346 1.33-3.465 1.901-4.8.071-.165.285-.696.477-1.18.192-.485.426-.91.522-.947.095-.037.139-.198.097-.358-.042-.16-.01-.375.072-.478.081-.103.227-.434.325-.736.097-.302.27-.585.383-.628.122-.047.173-.203.126-.383-.05-.193.341-1.176 1.076-2.7.635-1.319 1.111-2.469 1.057-2.556-.178-.29-.802-.167-1.103.216-.162.207-.39.375-.506.375a.653.653 0 0 0-.391.18c-.099.1-.18.126-.18.059s-.14.038-.31.232c-.198.227-.336.291-.384.178-.074-.178-.672.142-1.584.847-.694.536-1.31.707-4.322 1.196-9.089 1.478-17.465 3.528-23.399 5.728-2.648.982-6.462 2.85-8.251 4.04-4.364 2.906-6.317 6.677-4.952 9.562 2.031 4.293 8.879 6.901 21.902 8.342 11.558 1.278 24.558 1.473 40.725.61 24.773-1.322 42.101-3.481 56.1-6.99 5.84-1.464 9.821-2.843 13.8-4.78 3.01-1.465 4.93-2.724 6.387-4.187 2.59-2.6 2.682-4.988.285-7.391-4.442-4.455-15.739-7.275-33.522-8.37-10.875-.669-25.007-.64-36.573.074-4.936.305-4.602.325-4.602-.276v-.497l3.337-.18C77.942.599 81.115.519 90.75.518c11.127 0 15.666.177 23.175.9 16.447 1.587 26.53 5.096 28.98 10.087.379.77.42 1.008.42 2.428 0 1.51-.022 1.616-.52 2.55-3.76 7.057-22.604 12.952-51.53 16.119-8.713.954-16.626 1.55-28.125 2.12-4.32.213-24.428.415-27.15.272zm-11.398-10.43c-1.995-.334-2.852-1.246-2.852-3.036 0-2.41 1.46-4.795 3.507-5.73 2.322-1.06 5.768-1.112 6.882-.104.344.311.466.159.72-.9.385-1.604-.073-1.847-3.225-1.712-2.336.101-3.046.234-4.33.81-.858.384-.876.386-1.154.103-.276-.28-.262-.324.724-2.162l1.005-1.875 3.673.05c2.02.026 4.068.108 4.551.181 1.16.175 2.112.652 2.614 1.311.38.5.407.633.399 1.972-.009 1.359-.087 1.7-1.432 6.311l-1.423 4.875-4.418.021c-2.43.012-4.788-.04-5.241-.116zm4.695-2.59c.479-.113 1.045-.365 1.257-.56.514-.474.939-1.426.943-2.115.005-.854-.432-1.07-1.987-.985-2.14.117-3.179.939-3.183 2.517-.002.796.018.837.523 1.09.629.314 1.277.328 2.447.053zM69.615 24.5c-1.878-.41-2.61-1.272-2.59-3.054.027-2.35 1.492-4.722 3.475-5.625 2.375-1.081 5.812-1.149 6.931-.137.326.295.314.307.622-.617.326-.977.311-1.33-.07-1.675-.284-.256-.558-.285-2.662-.276-2.476.01-3.632.206-4.94.838-.618.298-.658.3-.938.046-.288-.261-.279-.293.625-2.004.505-.957.994-1.818 1.087-1.914.27-.278 8.366-.01 9.217.304 1.529.565 2.123 1.432 2.12 3.095-.002.784-.291 1.975-1.475 6.075l-1.473 5.1-4.485.027c-3.363.02-4.724-.026-5.444-.183zm4.982-2.528c.991-.234 1.52-.651 1.92-1.516.366-.793.36-1.498-.017-1.875-.241-.24-.5-.3-1.312-.299-2.392.002-3.734 1.026-3.608 2.751.04.543.112.657.57.886.629.314 1.277.328 2.447.053zm7.27 1.897c.136-.474 1.467-5.081 2.959-10.238l2.713-9.375 2.148-.041c1.692-.033 2.134-.001 2.083.15-.037.105-1.375 4.73-2.975 10.279l-2.91 10.087h-4.263l.246-.862zm8.983-4.197c-.055-2.786-.1-6.095-.1-7.353v-2.288h4.196l.04 5.059.039 5.058 2.787-5.02 2.787-5.022 2.2-.041c1.21-.023 2.2.01 2.2.075 0 .064-1.876 3.356-4.168 7.316l-4.166 7.2-2.858.041-2.858.04-.1-5.065zm14.825 4.966l-1.058-.212c-.894-.18-1.81-.87-2.11-1.591-.426-1.019-.168-2.853.62-4.404 1.175-2.316 3.703-3.543 7.05-3.423 1.309.046 1.592.106 2.199.462l.697.408.238-.7c.132-.385.239-.928.239-1.206 0-.726-.594-.94-2.6-.94-1.925 0-3.937.337-5.085.852-.82.368-.885.376-1.149.137-.27-.245-.247-.313.69-2.084.534-1.007 1.015-1.874 1.07-1.928.054-.054 1.989-.047 4.299.015 3.778.102 4.284.146 5.035.436.459.177 1.008.508 1.219.734 1.181 1.267 1.128 1.897-.706 8.325l-1.488 5.212-4.43-.017c-2.436-.01-4.565-.044-4.73-.076zm4.921-2.878c.834-.369 1.335-1.149 1.424-2.213.059-.718.03-.808-.33-1.044-.628-.412-2.675-.256-3.577.273-.982.576-1.552 1.858-1.216 2.735.271.705 2.352.845 3.7.249z" fill="#4b4b4b"/></svg>