<svg xmlns="http://www.w3.org/2000/svg" viewBox="0 0 499.1485 162.46397" height="162.464" width="499.149"><path d="M228.64 162.246c-.274-.27-8.044-.786-17.265-1.146-15.483-.603-42.763-2.79-52.234-4.189-5.37-.792-6.922-1.03-22.006-3.363-70.49-10.905-122.218-33.937-134.272-59.786-3.86-8.277-3.815-17.556.125-25.579 12.358-25.169 57.66-46.15 125.653-58.195 7.425-1.315 15.74-2.693 18.477-3.062 2.737-.37 6.112-.833 7.5-1.031C188.996.985 249.936-1.342 288.14.796c13.667.765 42.51 3.21 49.5 4.195 1.925.272 5.3.728 7.5 1.013 4.82.627 13.708 1.995 26.5 4.082 5.225.852 16.925 3.327 26 5.5 34.336 8.22 60.664 18.63 78.769 31.146 24.953 17.25 29.667 38.7 12.663 57.613-18.682 20.779-62.83 38.37-120.834 48.147-9.445 1.592-18.73 3.1-20.635 3.35-13.505 1.778-32.81 3.716-45.963 4.615-17.561 1.2-72.238 2.54-73 1.79zm81.5-7.704c37.91-3.738 60.902-7.384 92-14.587 12.77-2.957 41.941-13.133 52.754-18.4 20.634-10.052 34.95-22.688 37.832-33.39 1.438-5.342.77-13.14-1.54-17.973-9.307-19.477-49.002-39.584-99.486-50.394a4045.98 4045.98 0 0 1-13.56-2.919c-9.199-2.043-30.018-5.04-54.5-7.845-21.527-2.467-34.743-3.002-74-2.995-39.094.007-49.986.438-74.5 2.95-15.84 1.623-45.767 5.984-54 7.868-1.1.252-5.6 1.2-10 2.106-12.157 2.505-18.79 4.246-33 8.664C38.823 39.852 14.067 55.253 7.159 71.785c-2.378 5.69-1.96 14.414.971 20.297 3.41 6.844 11.071 14.51 20.828 20.842 21.001 13.63 47.342 22.915 91.184 32.141 6.958 1.465 19.54 3.562 29 4.835 21.641 2.91 25.147 3.291 42 4.558 7.7.578 16.025 1.219 18.5 1.423 9.364.773 89.976-.301 100.5-1.34zm-186-22.927c-9.594-4.37-14.837-15.176-12.483-25.73 1.75-7.843 5.22-12.155 12.484-15.512 4.388-2.027 13.754-2.506 17.935-.917 2.44.928 2.565 1.343 2.565 8.5 0 4.139-.338 7.51-.75 7.493-.413-.017-1.624-.692-2.691-1.5-1.068-.807-3.676-1.468-5.796-1.468-7.892 0-11.813 9.041-6.309 14.545 2.977 2.977 6.763 3.149 11.882.538l3.76-1.916-.298 8.122c-.283 7.7-.428 8.158-2.798 8.817-4.87 1.353-13.44.877-17.5-.972zm26.5-20.634v-21.5h15v29h16v14h-31v-21.5zm36 0v-21.5h16v43h-16v-21.5zm20.882 20.75a5.778 5.778 0 0 1 .012-1.535l3.246-19.5c1.714-10.293 3.134-19.277 3.155-19.965.028-.896 2.374-1.25 8.275-1.25h8.236l2.2 7.241c1.209 3.983 2.438 8.718 2.731 10.524.746 4.594 1.902 4.853 2.595.582.322-1.988 1.57-6.929 2.773-10.98l2.187-7.367h16.285l1.693 11.25c.93 6.188 1.94 12.6 2.242 14.25 3.508 19.16 3.976 17.5-4.94 17.5h-7.427l-.63-5.25c-.348-2.887-.964-8.175-1.372-11.75l-.74-6.5-1.756 6c-.966 3.3-2.519 8.475-3.451 11.5l-1.695 5.5-4.566.297-4.566.298-3.434-11.527c-3.857-12.946-4.23-12.786-5.426 2.328l-.72 9.104h-7.394c-4.067 0-7.448-.337-7.513-.75zm62.122.04c.002-.434 3.329-10.015 7.394-21.29l7.39-20.5 8.882-.285 8.883-.284 3.279 9.784a1368.127 1368.127 0 0 0 7.206 20.785c2.16 6.05 3.935 11.356 3.945 11.79.01.435-3.695.66-8.232.5-7.692-.27-8.272-.442-8.57-2.54-.293-2.064-.845-2.25-6.68-2.25s-6.388.186-6.68 2.25c-.299 2.098-.879 2.27-8.57 2.54-4.538.16-8.249-.065-8.247-.5zm26.553-16.198c-.308-.5-1.166-3.537-1.905-6.75l-1.344-5.842-1.09 5.002c-.6 2.751-1.392 5.789-1.76 6.75-.564 1.468-.084 1.748 2.995 1.748 2.016 0 3.413-.409 3.104-.908zm27.444 2.408v-14.5h-9v-14h33v14h-9v29h-15v-14.5zm29-7v-21.5h29V100.39l-6.75.295c-5.985.263-6.75.523-6.75 2.296 0 1.757.766 2.036 6.3 2.3l6.3.298-.3 5.201-.3 5.201-6.25.298c-5.38.256-6.25.563-6.25 2.206 0 1.675.885 1.944 7.25 2.202l7.25.294.3 5.75.3 5.75h-30.1v-21.5zm-241.762-34.46c-6.318-1.005-12.252-5.593-15.488-11.975-10.466-20.638 12.533-41.306 32.858-29.528 3.42 1.982 7.392 6.176 7.392 7.806 0 .227-2.744 1.44-6.097 2.693-5.785 2.164-6.242 2.195-8.905.622-3.901-2.304-6.674-2.073-9.544.797-1.849 1.849-2.454 3.52-2.454 6.777 0 7.177 5.023 11.85 10.5 9.768 3.612-1.373 3.07-3-1-3h-3.5v-10h11.94c6.8 0 12.205.426 12.553.99 1.213 1.962-1.53 12.557-4.245 16.397-4.73 6.69-14.414 10.18-24.01 8.653zm33.762-5.014c0-4.588.25-5.104 3.209-6.634 2.68-1.386 4.614-1.523 11.75-.828 4.697.457 11.803.847 15.79.865l7.25.034v4.233c0 5.939-1.955 6.808-12.936 5.75-12.297-1.184-20.86-1.05-22.26.35-2.156 2.157-2.803 1.287-2.803-3.77zm46.23-17.276l.27-21.25 7.5-.282 7.5-.283 6.5 10.783 6.5 10.782.284-10.793.284-10.793 7.216.293 7.216.293.27 21.25.27 21.25h-16.008l-6.266-10.748-6.266-10.749-.284 10.749-.284 10.748h-14.972l.27-21.25zm51.77-.277V32.426l14.25.278 14.25.277v11l-6.75.296c-5.87.257-6.75.544-6.75 2.202 0 1.64.873 1.948 6.25 2.204l6.25.298.302 5.25.302 5.25h-6.552c-6.322 0-6.552.088-6.552 2.5 0 2.429.2 2.5 7 2.5h7v11h-29V53.954zm36-.071V32.285l13.25.374c18.778.53 23.035 3.223 23.035 14.571 0 5.296-.242 5.875-3.723 8.884l-3.724 3.218 5.081 7.53c2.794 4.14 5.08 7.774 5.08 8.074 0 .3-3.818.545-8.486.545h-8.486l-3.464-6.75c-1.906-3.713-3.524-6.3-3.596-5.75-.072.55-.062 3.587.022 6.75l.152 5.75h-15.141V53.883zm20.065-2.437c4.042-2.163 1.465-8.474-3.181-7.792-1.868.274-2.212.932-2.139 4.077.049 2.062.126 3.975.171 4.25.143.858 3.126.548 5.15-.535zm23.935 23.804c0-.171 3.33-9.752 7.4-21.29l7.401-20.979H355.141l7.195 20.5c3.957 11.275 7.22 20.856 7.25 21.29.03.435-3.658.66-8.195.5-7.692-.27-8.272-.442-8.57-2.54-.293-2.064-.845-2.25-6.68-2.25s-6.388.186-6.68 2.25c-.299 2.098-.879 2.27-8.57 2.54-4.538.16-8.25.15-8.25-.02zm26.973-15.019c-.22-2.1-3.87-13.757-3.913-12.5-.033.962-.029 1.862.01 2 .039.137-.345 1.375-.854 2.75-.508 1.375-1.223 3.737-1.589 5.25-.63 2.605-.48 2.75 2.854 2.75 1.935 0 3.507-.113 3.492-.25zm25.027-6.25v-21.5h15v30h16v13h-31v-21.5zm-230 3.262c0-7.096 2.124-8.349 13.363-7.884 5.025.207 12.625.432 16.888.5l7.75.122v4.128c0 2.437-.612 4.634-1.493 5.365-1.87 1.552-8.746 1.573-18.708.057-7.317-1.113-10.483-.828-16.05 1.449-1.512.618-1.75.109-1.75-3.737zm0-15.132c0-3.732.445-4.875 2.394-6.153 3.66-2.398 8.633-2.824 16.733-1.432 8.163 1.402 13.382 1.563 16.687.514 2.05-.65 2.186-.381 2.186 4.335 0 5.02-.007 5.03-3.999 6.106-3.004.809-6.363.728-13.507-.326-8.871-1.309-14.24-1.077-18.744.808-1.519.635-1.75.126-1.75-3.852z" fill="#4b4b4b"/></svg>