<svg xmlns="http://www.w3.org/2000/svg" viewBox="0 0 1999.819 942.66699" height="942.667" width="1999.819"><path d="M434.82 941.728c-88.068-6.937-172.88-38.716-244.05-91.445-34.788-25.773-72.416-63.33-97.637-97.45-77.436-104.757-108.08-233.135-86.29-361.5C28.199 265.524 100.92 152.92 207.319 80.91 282.976 29.706 366.776 2.852 459.195.194c105.646-3.039 208.96 29.745 294.166 93.346 32.473 24.238 63.82 54.82 89.112 86.939 52.061 66.11 86.407 148.246 96.745 231.355 5.475 44.018 4.604 92.481-2.442 135.967-8.82 54.432-28.665 110.202-56.41 158.533-13.141 22.891-34.942 53.61-51.81 73-16.789 19.3-43.741 45.25-62.55 60.223-75.364 59.998-164.265 94.943-260.137 102.251-15.478 1.18-55.628 1.135-71.05-.08zm79-77.416c173.35-19.177 313.937-149.626 345.384-320.478 4.1-22.276 5.724-39.156 6.328-65.754l.573-25.253-140.893.253-140.893.254-.272 18.246-.273 18.246 122.273.254 122.272.254-.31 6.5c-1.992 41.773-14.824 89.68-35.222 131.5-17.46 35.795-38.156 64.906-66.751 93.888-57.176 57.949-128.216 93.022-211.217 104.28-18.566 2.519-68.497 2.528-87.258.016-85.843-11.492-161.308-49.88-217.71-110.743-51.833-55.932-82.93-121.94-93.726-198.941-2.227-15.884-2.55-72.09-.5-87 9.168-66.672 30.909-121.294 68.062-171 54.493-72.905 130.889-121.382 218.22-138.471 21.838-4.274 36.33-5.71 63.162-6.258l25.75-.526V76.537l-25.25.59c-32.19.75-53.059 3.165-80.75 9.342-99.772 22.259-188.233 83.837-244.343 170.087-28.151 43.272-46.462 88.308-56.628 139.278-8.085 40.534-9.224 91.077-3.007 133.5 12.287 83.853 51.107 160.883 111.4 221.047 69.88 69.73 158.52 109.518 258.078 115.844 12.112.77 49.406-.354 63.5-1.913zm70-204.978v-18.5h-92.996l-.252-188.25-.253-188.25-18.75-.272-18.75-.272v414.044h131v-18.5zM335.776 375.19c24.834-6.973 41.489-28.794 41.489-54.356 0-46.93-53.254-73.13-90.929-44.738-22.878 17.242-28.97 50.814-13.53 74.565 6.957 10.702 15.736 17.978 27.17 22.519 12.064 4.79 23.592 5.437 35.8 2.01zm1388.042 342.048c-76.521-11.12-132.891-62.51-158.394-144.404-16.724-53.702-18.953-124.072-5.655-178.5 10.434-42.703 28.016-75.874 55.05-103.856 18.177-18.816 34.767-30.821 58.198-42.115 37.142-17.902 78.117-25.722 126.801-24.201 59.065 1.845 106.896 18.524 145.27 50.656 31.532 26.405 46.069 55.366 53.213 106.016.814 5.775 1.489 11.062 1.499 11.75.014.988-15.23 1.25-72.936 1.25h-72.955l-.59-3.75c-1.147-7.285-5.618-19.682-9.26-25.679-13.007-21.41-39.547-33.172-66.975-29.68-41.49 5.283-67.516 38.487-76.897 98.109-2.58 16.396-2.608 62.376-.049 79.394 7.927 52.705 29.678 85.686 64.18 97.314 7.411 2.498 9.25 2.7 25 2.744 19.546.055 25.094-1.03 38-7.43 18.959-9.4 31.686-27.362 39.984-56.43 1.399-4.9 2.82-10.638 3.157-12.75l.615-3.842h-89.256v-99h218v274h-119v-46.299l-4.858 6.4c-20.41 26.882-52.91 44.423-93.27 50.34-13.226 1.94-45.412 1.92-58.872-.037zm-545-245.904v-235.5h138.995l.253 176.75.252 176.75 103.25.254 103.25.255v116.991h-346v-235.5z" fill="#4b4b4b"/></svg>